<svg width="25" height="24" viewBox="0 0 25 24" fill="none" xmlns="http://www.w3.org/2000/svg">
<path d="M2.75 7.125C2.75 6.50368 3.25368 6 3.875 6H9.875C10.4963 6 11 6.50368 11 7.125V10.875C11 11.4963 10.4963 12 9.875 12H3.875C3.25368 12 2.75 11.4963 2.75 10.875V7.125Z" stroke="#344054" stroke-width="1.5" stroke-linecap="round" stroke-linejoin="round"/>
<path d="M14.75 8.625C14.75 8.00368 15.2537 7.5 15.875 7.5H21.125C21.7463 7.5 22.25 8.00368 22.25 8.625V16.875C22.25 17.4963 21.7463 18 21.125 18H15.875C15.2537 18 14.75 17.4963 14.75 16.875V8.625Z" stroke="#344054" stroke-width="1.5" stroke-linecap="round" stroke-linejoin="round"/>
<path d="M4.25 16.125C4.25 15.5037 4.75368 15 5.375 15H10.625C11.2463 15 11.75 15.5037 11.75 16.125V18.375C11.75 18.9963 11.2463 19.5 10.625 19.5H5.375C4.75368 19.5 4.25 18.9963 4.25 18.375V16.125Z" stroke="#344054" stroke-width="1.5" stroke-linecap="round" stroke-linejoin="round"/>
</svg>
