<?xml version="1.0" encoding="UTF-8"?>
<svg width="16px" height="20px" viewBox="0 0 16 20" version="1.1" xmlns="http://www.w3.org/2000/svg" xmlns:xlink="http://www.w3.org/1999/xlink">
    <!-- Generator: Sketch 63.1 (92452) - https://sketch.com -->
    <title>Apple</title>
    <desc>Created with Sketch.</desc>
    <defs>
        <polygon id="path-1" points="0 1 16 1 16 21 0 21"></polygon>
    </defs>
    <g id="Symbols" stroke="none" stroke-width="1" fill="none" fill-rule="evenodd">
        <g id="Footer" transform="translate(-1213.000000, -143.000000)">
            <g id="Group-7">
                <g>
                    <g id="Footer">
                        <g id="Link-3-Copy">
                            <g transform="translate(1125.000000, 64.000000)">
                                <g id="Group-22" transform="translate(0.000000, 36.000000)">
                                    <g id="Apple" transform="translate(88.000000, 42.000000)">
                                        <mask id="mask-2" fill="white">
                                            <use xlink:href="#path-1"></use>
                                        </mask>
                                        <g id="Clip-18"></g>
                                        <path d="M10.9784089,4.21439535 L10.9784089,4.25847289 C10.0711924,5.36041137 9.09239448,5.86648682 8.04201517,5.77669924 C7.92997471,4.58823819 8.28321338,3.51568473 9.10639953,2.56230389 C9.44718926,2.14601602 9.88601439,1.7901307 10.4259872,1.49138294 C10.9644038,1.19426767 11.4888154,1.03101753 11.9992219,1 C12.0848084,2.19172606 11.7440187,3.26264701 10.9784089,4.21439535 M13.404396,11.5802419 C13.3763859,12.1157024 13.4744213,12.6511628 13.7016145,13.1866233 C14.0984244,14.2885618 14.8655904,15.12277 16,15.685983 C15.6592103,16.818939 15.1332426,17.9045525 14.4252091,18.9444559 C13.4884264,20.2847396 12.5672048,20.9687577 11.6584322,20.9981428 C11.2616223,20.9981428 10.7512157,20.8642776 10.1272126,20.5965474 C9.44718926,20.3288172 8.86520132,20.194952 8.3828049,20.194952 C7.90040848,20.194952 7.29041043,20.3435097 6.55281074,20.6422574 C5.95681774,20.8789701 5.50398755,20.9981428 5.19120794,20.9981428 C4.56720482,21.0291603 3.90118654,20.6716425 3.19159697,19.9272218 C2.65318032,19.3607438 2.11320755,18.5885706 1.5747909,17.6058047 C1.14997082,16.802614 0.823186151,16.0745184 0.595992997,15.4182528 C0.199183038,14.1693892 0,12.9629706 0,11.8022621 C0,10.5240135 0.24119821,9.42207498 0.723594631,8.49971166 C1.17798094,7.63775089 1.7801984,6.98148531 2.53180315,6.53581241 C3.2834079,6.08850702 4.07080335,5.85179431 4.8939895,5.82077678 C5.34681968,5.82077678 6.0424042,6.00035194 6.97918693,6.35623726 C7.57362381,6.59621497 7.95798483,6.71375507 8.12760163,6.71375507 C8.29721844,6.71375507 8.65201323,6.61090748 9.19198599,6.4019473 C9.73040265,6.19461961 10.1552227,6.04442948 10.4680023,5.9546419 C11.006419,5.80771677 11.4888154,5.74731421 11.9151916,5.77669924 C13.5319977,5.92688937 14.7379887,6.59621497 15.5316086,7.78630852 C14.0844194,8.67765432 13.3763859,9.94447544 13.404396,11.5802419" id="Fill-17" fill="#B9C2C3" mask="url(#mask-2)"></path>
                                    </g>
                                </g>
                            </g>
                        </g>
                    </g>
                </g>
            </g>
        </g>
    </g>
</svg>