<?xml version="1.0" encoding="utf-8"?>
<!-- Generator: Adobe Illustrator 24.1.0, SVG Export Plug-In . SVG Version: 6.00 Build 0)  -->
<svg version="1.1" id="Layer_1" xmlns="http://www.w3.org/2000/svg" xmlns:xlink="http://www.w3.org/1999/xlink" x="0px" y="0px"
	 viewBox="0 0 11 18" style="enable-background:new 0 0 11 18;" xml:space="preserve">
<style type="text/css">
	.st0{filter:url(#Adobe_OpacityMaskFilter);}
	.st1{fill-rule:evenodd;clip-rule:evenodd;fill:#FFFFFF;}
	.st2{mask:url(#mask-2_1_);}
	.st3{fill-rule:evenodd;clip-rule:evenodd;fill:#424B5A;}
</style>
<desc>Created with Sketch.</desc>
<g id="Theme-Options">
	<g id="Sub-Theme-1-Copy" transform="translate(-191.000000, -1032.000000)">
		<g id="Group-11" transform="translate(0.000000, 735.000000)">
			<g id="Atoms-_x2F_-icons-_x2F_-System-_x2F_-Chevron_x5F_right-Copy" transform="translate(191.000000, 297.000000)">
				<defs>
					<filter id="Adobe_OpacityMaskFilter" filterUnits="userSpaceOnUse" x="-12" y="-8" width="34" height="34">
						<feColorMatrix  type="matrix" values="1 0 0 0 0  0 1 0 0 0  0 0 1 0 0  0 0 0 1 0"/>
					</filter>
				</defs>
				<mask maskUnits="userSpaceOnUse" x="-12" y="-8" width="34" height="34" id="mask-2_1_">
					<g class="st0">
						<path id="path-1_2_" class="st1" d="M9.4,16.8l0.6-0.6c0.4-0.4,0.4-1,0-1.4L4.2,9l0,0L10,3.2c0.4-0.4,0.4-1,0-1.4L9.4,1.2
							C9,0.8,8.4,0.8,8,1.2L0.2,9l0,0L8,16.8C8.4,17.2,9,17.2,9.4,16.8z"/>
					</g>
				</mask>
				<g id="_x21AA__xD83C__xDFA8_" class="st2">
					<g id="Atoms-_x2F_-Colors-_x2F_-Black" transform="translate(-11.000000, -8.000000)">
						<rect x="-1" y="0" class="st3" width="34" height="34"/>
					</g>
				</g>
			</g>
		</g>
	</g>
</g>
</svg>
