<?xml version="1.0" encoding="UTF-8"?>
<svg width="20px" height="20px" viewBox="0 0 20 20" version="1.1" xmlns="http://www.w3.org/2000/svg" xmlns:xlink="http://www.w3.org/1999/xlink">
    <!-- Generator: Sketch 63.1 (92452) - https://sketch.com -->
    <title>Flickr</title>
    <desc>Created with Sketch.</desc>
    <g id="Symbols" stroke="none" stroke-width="1" fill="none" fill-rule="evenodd">
        <g id="Footer" transform="translate(-1168.000000, -146.000000)" fill="#B9C2C3">
            <g id="Group-7">
                <g>
                    <g id="Footer">
                        <g id="Link-3-Copy">
                            <g transform="translate(1125.000000, 64.000000)">
                                <g id="Group-22" transform="translate(0.000000, 36.000000)">
                                    <path d="M57.0233228,59 C57.8422113,59 58.5418946,58.709761 59.1258278,58.1258278 C59.7080334,57.5436222 60,56.8353009 60,56.0008638 C60,55.1664267 59.7080334,54.4581054 59.1258278,53.8741722 C58.5418946,53.2919666 57.8335733,53 56.9991362,53 C56.1646991,53 55.4563778,53.2919666 54.8741722,53.8741722 C54.290239,54.4581054 54,55.1664267 54,56.0008638 C54,56.8353009 54.290239,57.5436222 54.8741722,58.1258278 C55.4563778,58.709761 56.1733372,59 57.0233228,59 L57.0233228,59 Z M49.0233228,59 C49.8422113,59 50.5436222,58.709761 51.1258278,58.1258278 C51.709761,57.5436222 52,56.8353009 52,56.0008638 C52,55.1664267 51.709761,54.4581054 51.1258278,53.8741722 C50.5436222,53.2919666 49.8353009,53 49.0008638,53 C48.1664267,53 47.4581054,53.2919666 46.8741722,53.8741722 C46.2919666,54.4581054 46,55.1664267 46,56.0008638 C46,56.8353009 46.2919666,57.5436222 46.8741722,58.1258278 C47.4581054,58.709761 48.1733372,59 49.0233228,59 L49.0233228,59 Z M60.8565015,46 C61.4523712,46 61.9568199,46.2089796 62.3747449,46.6253061 C62.7910375,47.0432653 63,47.5477551 63,48.1436735 L63,63.8579592 C63,64.4538776 62.7910375,64.9583673 62.3747449,65.3763265 C61.9568199,65.7926531 61.4523712,66 60.8565015,66 L45.1434985,66 C44.5476288,66 44.0431801,65.7926531 43.6252551,65.3763265 C43.2089625,64.9583673 43,64.4538776 43,63.8579592 L43,48.1436735 C43,47.5477551 43.2089625,47.0432653 43.6252551,46.6253061 C44.0431801,46.2089796 44.5476288,46 45.1434985,46 L60.8565015,46 Z" id="Flickr"></path>
                                </g>
                            </g>
                        </g>
                    </g>
                </g>
            </g>
        </g>
    </g>
</svg>