<?xml version="1.0" encoding="UTF-8"?>
<svg width="21px" height="21px" viewBox="0 0 21 21" version="1.1" xmlns="http://www.w3.org/2000/svg" xmlns:xlink="http://www.w3.org/1999/xlink">
    <!-- Generator: Sketch 63.1 (92452) - https://sketch.com -->
    <title>Twitter</title>
    <desc>Created with Sketch.</desc>
    <g id="Symbols" stroke="none" stroke-width="1" fill="none" fill-rule="evenodd">
        <g id="Navigation" transform="translate(-1310.000000, -21.000000)" fill="#00447C" fill-rule="nonzero">
            <g id="Group-17">
                <path d="M1326.71429,41.7142857 C1327.77679,41.7142857 1328.68527,41.3370536 1329.43973,40.5825893 C1330.1942,39.828125 1330.57143,38.9196429 1330.57143,37.8571429 L1330.57143,37.8571429 L1330.57143,25 C1330.57143,23.9375 1330.1942,23.0290179 1329.43973,22.2745536 C1328.68527,21.5200893 1327.77679,21.1428571 1326.71429,21.1428571 L1326.71429,21.1428571 L1313.85714,21.1428571 C1312.79464,21.1428571 1311.88616,21.5200893 1311.1317,22.2745536 C1310.37723,23.0290179 1310,23.9375 1310,25 L1310,25 L1310,37.8571429 C1310,38.9196429 1310.37723,39.828125 1311.1317,40.5825893 C1311.88616,41.3370536 1312.79464,41.7142857 1313.85714,41.7142857 L1313.85714,41.7142857 L1326.71429,41.7142857 Z M1317.74107,37.4285714 C1316.1875,37.4285714 1314.75,37.0089286 1313.42857,36.1696429 C1313.64286,36.1964286 1313.86607,36.2098214 1314.09821,36.2098214 C1315.39286,36.2098214 1316.55804,35.8080357 1317.59375,35.0044643 C1316.98661,34.9955357 1316.4442,34.8080357 1315.96652,34.4419643 C1315.48884,34.0758929 1315.15625,33.6116071 1314.96875,33.0491071 C1315.20089,33.0848214 1315.375,33.1026786 1315.49107,33.1026786 C1315.6875,33.1026786 1315.91518,33.0669643 1316.17411,32.9955357 C1315.52232,32.8705357 1314.97321,32.546875 1314.52679,32.0245536 C1314.08036,31.5022321 1313.85714,30.90625 1313.85714,30.2366071 L1313.85714,30.2366071 L1313.85714,30.2098214 C1314.33036,30.4330357 1314.77679,30.5491071 1315.19643,30.5580357 C1314.38393,30.0133929 1313.97768,29.2321429 1313.97768,28.2142857 C1313.97768,27.7142857 1314.10714,27.2410714 1314.36607,26.7946429 C1315.07143,27.6607143 1315.92857,28.3526786 1316.9375,28.8705357 C1317.94643,29.3883929 1319.02679,29.6785714 1320.17857,29.7410714 C1320.13393,29.5714286 1320.11161,29.3571429 1320.11161,29.0982143 C1320.11161,28.3214286 1320.38616,27.6584821 1320.93527,27.109375 C1321.48438,26.5602679 1322.14732,26.2857143 1322.92411,26.2857143 C1323.74554,26.2857143 1324.42857,26.5803571 1324.97321,27.1696429 C1325.58929,27.0535714 1326.1875,26.8258929 1326.76786,26.4866071 C1326.54464,27.1741071 1326.12946,27.6964286 1325.52232,28.0535714 C1326.10268,27.9732143 1326.64286,27.8214286 1327.14286,27.5982143 C1326.76786,28.1696429 1326.29911,28.65625 1325.73661,29.0580357 C1325.74554,29.1383929 1325.75,29.2589286 1325.75,29.4196429 C1325.75,30.1696429 1325.64062,30.921875 1325.42188,31.6763393 C1325.20312,32.4308036 1324.8683,33.1540179 1324.41741,33.8459821 C1323.96652,34.5379464 1323.42857,35.1495536 1322.80357,35.6808036 C1322.17857,36.2120536 1321.42857,36.6361607 1320.55357,36.953125 C1319.67857,37.2700893 1318.74107,37.4285714 1317.74107,37.4285714 Z" id="Twitter"></path>
            </g>
        </g>
    </g>
</svg>