<?xml version="1.0" encoding="UTF-8"?>
<svg width="21px" height="21px" viewBox="0 0 21 21" version="1.1" xmlns="http://www.w3.org/2000/svg" xmlns:xlink="http://www.w3.org/1999/xlink">
    <!-- Generator: Sketch 63.1 (92452) - https://sketch.com -->
    <title>Facebook</title>
    <desc>Created with Sketch.</desc>
    <g id="Symbols" stroke="none" stroke-width="1" fill="none" fill-rule="evenodd">
        <g id="Navigation" transform="translate(-1271.000000, -21.000000)" fill="#00447C" fill-rule="nonzero">
            <g id="Group-17">
                <path d="M1281.98214,41.7142857 L1281.98214,33.7455357 L1279.30357,33.7455357 L1279.30357,30.6383929 L1281.98214,30.6383929 L1281.98214,28.3482143 C1281.98214,27.0446429 1282.34598,26.0357143 1283.07366,25.3214286 C1283.80134,24.6071429 1284.77232,24.25 1285.98661,24.25 C1287.01339,24.25 1287.80804,24.2901786 1288.37054,24.3705357 L1288.37054,24.3705357 L1288.37054,27.1428571 L1286.73661,27.15625 C1286.12946,27.15625 1285.72098,27.28125 1285.51116,27.53125 C1285.30134,27.78125 1285.19643,28.15625 1285.19643,28.65625 L1285.19643,28.65625 L1285.19643,30.6383929 L1288.26339,30.6383929 L1287.86161,33.7455357 L1285.19643,33.7455357 L1285.19643,41.7142857 L1287.71429,41.7142857 C1288.77679,41.7142857 1289.68527,41.3370536 1290.43973,40.5825893 C1291.1942,39.828125 1291.57143,38.9196429 1291.57143,37.8571429 L1291.57143,37.8571429 L1291.57143,25 C1291.57143,23.9375 1291.1942,23.0290179 1290.43973,22.2745536 C1289.68527,21.5200893 1288.77679,21.1428571 1287.71429,21.1428571 L1287.71429,21.1428571 L1274.85714,21.1428571 C1273.79464,21.1428571 1272.88616,21.5200893 1272.1317,22.2745536 C1271.37723,23.0290179 1271,23.9375 1271,25 L1271,25 L1271,37.8571429 C1271,38.9196429 1271.37723,39.828125 1272.1317,40.5825893 C1272.88616,41.3370536 1273.79464,41.7142857 1274.85714,41.7142857 L1274.85714,41.7142857 L1281.98214,41.7142857 Z" id="Facebook"></path>
            </g>
        </g>
    </g>
</svg>