<?xml version="1.0" encoding="UTF-8"?>
<svg width="40px" height="40px" viewBox="0 0 40 40" version="1.1" xmlns="http://www.w3.org/2000/svg" xmlns:xlink="http://www.w3.org/1999/xlink">
    <title>LinkedIn Share Static</title>
    <g id="Symbols" stroke="none" stroke-width="1" fill="none" fill-rule="evenodd">
        <g id="Social_Icon-Links" transform="translate(-112.000000, -50.000000)">
            <g id="Static">
                <g transform="translate(0.000000, 50.000000)">
                    <g id="LinkedIn-Share-Static" transform="translate(112.000000, 0.000000)">
                        <circle id="Oval-Copy-2" fill="#0071BC" cx="20" cy="20" r="20"></circle>
                        <path d="M14.6428571,16.0535714 C15.1428571,16.0535714 15.546131,15.9077381 15.8526786,15.6160714 C16.1592262,15.3244048 16.3095238,14.9613095 16.3035714,14.5267857 C16.297619,14.0863095 16.1458333,13.7217262 15.8482143,13.4330357 C15.5505952,13.1443452 15.1547619,13 14.6607143,13 C14.1666667,13 13.766369,13.1443452 13.4598214,13.4330357 C13.1532738,13.7217262 13,14.0863095 13,14.5267857 C13,14.9613095 13.1488095,15.3244048 13.4464286,15.6160714 C13.7440476,15.9077381 14.1369048,16.0535714 14.625,16.0535714 L14.625,16.0535714 L14.6428571,16.0535714 Z M20.6785714,26.1071429 L20.6785714,21.1696429 C20.6785714,20.8660714 20.7113095,20.625 20.7767857,20.4464286 C20.9017857,20.1428571 21.0907738,19.8883929 21.34375,19.6830357 C21.5967262,19.4776786 21.9107143,19.375 22.2857143,19.375 C22.797619,19.375 23.1741071,19.5520833 23.4151786,19.90625 C23.65625,20.2604167 23.7767857,20.75 23.7767857,21.375 L23.7767857,21.375 L23.7767857,26.1071429 L26.7142857,26.1071429 L26.7142857,21.0357143 C26.7142857,19.7321429 26.4047619,18.7425595 25.7857143,18.0669643 C25.1666667,17.391369 24.3482143,17.0535714 23.3303571,17.0535714 C22.9553571,17.0535714 22.6145833,17.0997024 22.3080357,17.1919643 C22.0014881,17.2842262 21.7425595,17.4136905 21.53125,17.5803571 C21.3199405,17.7470238 21.1517857,17.9017857 21.0267857,18.0446429 C20.9017857,18.1875 20.7797619,18.3541667 20.6607143,18.5446429 L20.678,18.5178571 L20.6785714,17.2589286 L17.7410714,17.2589286 L17.75,17.6875 C17.7540923,17.8839286 17.7567778,18.3617001 17.7580566,19.1208147 L17.7581086,21.3412445 C17.7561042,22.6524387 17.7504252,24.2410714 17.7410714,26.1071429 L17.7410714,26.1071429 L20.6785714,26.1071429 Z M16.1160714,26.1071429 L16.1160714,17.2589286 L13.1696429,17.2589286 L13.1696429,26.1071429 L16.1160714,26.1071429 Z" id="" fill="#FFFFFF" fill-rule="nonzero"></path>
                    </g>
                </g>
            </g>
        </g>
    </g>
</svg>