<?xml version="1.0" encoding="UTF-8"?>
<svg width="20px" height="20px" viewBox="0 0 20 20" version="1.1" xmlns="http://www.w3.org/2000/svg" xmlns:xlink="http://www.w3.org/1999/xlink">
    <!-- Generator: Sketch 63.1 (92452) - https://sketch.com -->
    <title>Twitter</title>
    <desc>Created with Sketch.</desc>
    <defs>
        <polygon id="path-1" points="0 1 20 1 20 21 0 21"></polygon>
    </defs>
    <g id="Symbols" stroke="none" stroke-width="1" fill="none" fill-rule="evenodd">
        <g id="Footer" transform="translate(-1167.000000, -102.000000)">
            <g id="Group-7">
                <g>
                    <g id="Footer">
                        <g id="Link-3-Copy">
                            <g transform="translate(1125.000000, 64.000000)">
                                <g id="Group-22" transform="translate(0.000000, 36.000000)">
                                    <g id="Twitter" transform="translate(42.000000, 1.000000)">
                                        <mask id="mask-2" fill="white">
                                            <use xlink:href="#path-1"></use>
                                        </mask>
                                        <g id="Clip-5"></g>
                                        <path d="M15.6702041,8.09877551 C16.235102,7.68244898 16.7265306,7.17632653 17.1428571,6.58040816 C16.5779592,6.81877551 16.0114286,6.96734694 15.4465306,7.0277551 C16.0718367,6.64081633 16.5028571,6.10530612 16.7412245,5.41959184 C16.1469388,5.77714286 15.5216327,6.0155102 14.8669388,6.13469388 C14.3020408,5.50938776 13.6016327,5.19755102 12.7689796,5.19755102 C12.1730612,5.19755102 11.6293878,5.36081633 11.1395918,5.68734694 C10.6481633,6.0155102 10.2840816,6.45469388 10.0457143,7.00489796 C9.80734694,7.55510204 9.76163265,8.15918367 9.91183673,8.8122449 C8.69061224,8.75346939 7.56081633,8.44816327 6.51918367,7.89795918 C5.47591837,7.3477551 4.58285714,6.62612245 3.84,5.73306122 C3.5722449,6.17877551 3.43836735,6.66367347 3.43836735,7.18285714 C3.43836735,7.70367347 3.55755102,8.18040816 3.79591837,8.61142857 C4.03428571,9.04408163 4.36081633,9.39346939 4.77714286,9.66122449 C4.30204082,9.63183673 3.85469388,9.49795918 3.43836735,9.25959184 L3.43836735,9.30367347 C3.43836735,10.0187755 3.66204082,10.6440816 4.1077551,11.1795918 C4.55346939,11.715102 5.12,12.0563265 5.80408163,12.2065306 C5.3877551,12.2946939 4.94040816,12.3110204 4.46530612,12.2506122 C4.64326531,12.8465306 4.98612245,13.3297959 5.4922449,13.7020408 C5.99836735,14.0742857 6.56326531,14.2587755 7.18857143,14.2587755 C6.11591837,15.0930612 4.91102041,15.5093878 3.5722449,15.5093878 L2.85714286,15.5093878 C4.22693878,16.3730612 5.73061224,16.8040816 7.36653061,16.8040816 C9.06285714,16.8040816 10.5812245,16.3730612 11.92,15.5093878 C13.1102041,14.7355102 14.0473469,13.6791837 14.7330612,12.3404082 C15.3583673,11.0897959 15.6702041,9.79510204 15.6702041,8.45632653 L15.6702041,8.09877551 Z M17.8579592,1 C18.4538776,1 18.9583673,1.20897959 19.3763265,1.62530612 C19.7926531,2.04326531 20,2.5477551 20,3.14367347 L20,18.8579592 C20,19.4538776 19.7926531,19.9583673 19.3763265,20.3763265 C18.9583673,20.7926531 18.4538776,21 17.8579592,21 L2.14367347,21 C1.5477551,21 1.04326531,20.7926531 0.625306122,20.3763265 C0.208979592,19.9583673 0,19.4538776 0,18.8579592 L0,3.14367347 C0,2.5477551 0.208979592,2.04326531 0.625306122,1.62530612 C1.04326531,1.20897959 1.5477551,1 2.14367347,1 L17.8579592,1 Z" id="Fill-4" fill="#B9C2C3" mask="url(#mask-2)"></path>
                                    </g>
                                </g>
                            </g>
                        </g>
                    </g>
                </g>
            </g>
        </g>
    </g>
</svg>