<?xml version="1.0" encoding="UTF-8"?>
<svg width="40px" height="40px" viewBox="0 0 40 40" version="1.1" xmlns="http://www.w3.org/2000/svg" xmlns:xlink="http://www.w3.org/1999/xlink">
    <title>URL Share Static</title>
    <g id="Symbols" stroke="none" stroke-width="1" fill="none" fill-rule="evenodd">
        <g id="Social_Icon-Links" transform="translate(-168.000000, -50.000000)">
            <g id="Static">
                <g transform="translate(0.000000, 50.000000)">
                    <g id="URL-Share-Static" transform="translate(168.000000, 0.000000)">
                        <circle id="Oval-Copy-3" fill="#0071BC" cx="20" cy="20" r="20"></circle>
                        <path d="M23,23.688 C23.5973333,23.688 24.152,23.5386667 24.664,23.24 C25.176,22.9413333 25.5786667,22.536 25.872,22.024 C26.1653333,21.512 26.312,20.952 26.312,20.344 C26.312,19.736 26.1653333,19.176 25.872,18.664 C25.5786667,18.152 25.176,17.7466667 24.664,17.448 C24.152,17.1493333 23.5973333,17 23,17 L23,17 L20.312,17 L20.312,18.28 L23,18.28 C23.3626667,18.28 23.704,18.3733333 24.024,18.56 C24.344,18.7466667 24.5973333,19 24.784,19.32 C24.9706667,19.64 25.064,19.9813333 25.064,20.344 C25.064,20.7066667 24.9706667,21.048 24.784,21.368 C24.5973333,21.688 24.344,21.9413333 24.024,22.128 C23.704,22.3146667 23.3626667,22.408 23,22.408 L23,22.408 L20.312,22.408 L20.312,23.688 L23,23.688 Z M19,23.688 L19,22.408 L16.312,22.408 C15.9493333,22.408 15.608,22.3146667 15.288,22.128 C14.968,21.9413333 14.7146667,21.688 14.528,21.368 C14.3413333,21.048 14.248,20.7066667 14.248,20.344 C14.248,19.9813333 14.3413333,19.64 14.528,19.32 C14.7146667,19 14.968,18.7466667 15.288,18.56 C15.608,18.3733333 15.9493333,18.28 16.312,18.28 L16.312,18.28 L19,18.28 L19,17 L16.312,17 C15.7146667,17 15.16,17.1493333 14.648,17.448 C14.136,17.7466667 13.7333333,18.152 13.44,18.664 C13.1466667,19.176 13,19.736 13,20.344 C13,20.952 13.1466667,21.512 13.44,22.024 C13.7333333,22.536 14.136,22.9413333 14.648,23.24 C15.16,23.5386667 15.7146667,23.688 16.312,23.688 L16.312,23.688 L19,23.688 Z M22.312,21 L22.312,19.688 L17,19.688 L17,21 L22.312,21 Z" id="" fill="#FFFFFF" fill-rule="nonzero"></path>
                    </g>
                </g>
            </g>
        </g>
    </g>
</svg>