<?xml version="1.0" encoding="UTF-8"?>
<svg width="61px" height="71px" viewBox="0 0 61 71" version="1.1" xmlns="http://www.w3.org/2000/svg" xmlns:xlink="http://www.w3.org/1999/xlink">
    <!-- Generator: Sketch 64 (93537) - https://sketch.com -->
    <title>local_florist-24px</title>
    <desc>Created with Sketch.</desc>
    <g id="UI-Theme-Round-3" stroke="none" stroke-width="1" fill="none" fill-rule="evenodd">
        <g id="Home---RD-3-Resources" transform="translate(-1230.000000, -2924.000000)">
            <g id="Group-5" transform="translate(15.000000, 2812.000000)">
                <g id="local_florist-24px" transform="translate(1205.000000, 109.000000)">
                    <polygon id="Path" points="0 0 80 0 80 80 0 80"></polygon>
                    <path d="M40.2116402,73.2275132 C56.807525,73.2275132 70.2645503,59.824641 70.2645503,43.2955404 C53.6686655,43.2955404 40.2116402,56.6984127 40.2116402,73.2275132 Z M18.840682,34.1496599 C18.840682,38.739229 22.5805996,42.4640967 27.1887125,42.4640967 C28.958495,42.4640967 30.5613169,41.9319728 31.9303939,41.0007559 L31.8636096,41.6326531 C31.8636096,46.2222222 35.6035273,49.9470899 40.2116402,49.9470899 C44.8197531,49.9470899 48.5596708,46.2222222 48.5596708,41.6326531 L48.4928865,41.0007559 C49.8285714,41.9319728 51.4647854,42.4640967 53.2345679,42.4640967 C57.8426808,42.4640967 61.5825985,38.739229 61.5825985,34.1496599 C61.5825985,30.8238851 59.6124633,27.9969766 56.807525,26.6666667 C59.6124633,25.3363568 61.5825985,22.5094482 61.5825985,19.1836735 C61.5825985,14.5941043 57.8426808,10.8692366 53.2345679,10.8692366 C51.4647854,10.8692366 49.8619636,11.4013605 48.4928865,12.3325775 L48.5596708,11.7006803 C48.5596708,7.11111111 44.8197531,3.38624339 40.2116402,3.38624339 C35.6035273,3.38624339 31.8636096,7.11111111 31.8636096,11.7006803 L31.9303939,12.3325775 C30.594709,11.4013605 28.958495,10.8692366 27.1887125,10.8692366 C22.5805996,10.8692366 18.840682,14.5941043 18.840682,19.1836735 C18.840682,22.5094482 20.8108172,25.3363568 23.6157554,26.6666667 C20.8108172,27.9969766 18.840682,30.8238851 18.840682,34.1496599 Z M40.2116402,18.3522298 C44.8197531,18.3522298 48.5596708,22.0770975 48.5596708,26.6666667 C48.5596708,31.2562358 44.8197531,34.9811036 40.2116402,34.9811036 C35.6035273,34.9811036 31.8636096,31.2562358 31.8636096,26.6666667 C31.8636096,22.0770975 35.6035273,18.3522298 40.2116402,18.3522298 Z M10.1587302,43.2955404 C10.1587302,59.824641 23.6157554,73.2275132 40.2116402,73.2275132 C40.2116402,56.6984127 26.7546149,43.2955404 10.1587302,43.2955404 Z" id="Shape" fill="#0071BC" fill-rule="nonzero" opacity="0.591006324"></path>
                </g>
            </g>
        </g>
    </g>
</svg>