<?xml version="1.0" encoding="UTF-8"?>
<svg width="20px" height="20px" viewBox="0 0 20 20" version="1.1" xmlns="http://www.w3.org/2000/svg" xmlns:xlink="http://www.w3.org/1999/xlink">
    <!-- Generator: Sketch 63.1 (92452) - https://sketch.com -->
    <title>Facebook</title>
    <desc>Created with Sketch.</desc>
    <defs>
        <polygon id="path-1" points="0 1 20 1 20 21 0 21"></polygon>
    </defs>
    <g id="Symbols" stroke="none" stroke-width="1" fill="none" fill-rule="evenodd">
        <g id="Footer" transform="translate(-1125.000000, -101.000000)">
            <g id="Group-7">
                <g>
                    <g id="Footer">
                        <g id="Link-3-Copy">
                            <g transform="translate(1125.000000, 64.000000)">
                                <g id="Group-22" transform="translate(0.000000, 36.000000)">
                                    <g id="Facebook">
                                        <mask id="mask-2" fill="white">
                                            <use xlink:href="#path-1"></use>
                                        </mask>
                                        <g id="Clip-2"></g>
                                        <path d="M20,18.8579592 C20,19.4538776 19.7926531,19.9583673 19.3746939,20.3763265 C18.9583673,20.7926531 18.4522449,21 17.8579592,21 L14.0620408,21 L14.0620408,13.0995918 L16.7412245,13.0995918 L17.1428571,10.0628571 L14.0620408,10.0628571 L14.0620408,8.1444898 C14.0620408,7.6677551 14.1518367,7.31020408 14.3297959,7.07183673 C14.5681633,6.80408163 14.9697959,6.67020408 15.5363265,6.67020408 L17.1428571,6.67020408 L17.1428571,3.99265306 C16.517551,3.90285714 15.7436735,3.85714286 14.8212245,3.85714286 C13.6310204,3.85714286 12.6857143,4.20816327 11.9869388,4.90693878 C11.2881633,5.60571429 10.9371429,6.58040816 10.9371429,7.83102041 L10.9371429,10.0628571 L8.21387755,10.0628571 L8.21387755,13.0995918 L10.9371429,13.0995918 L10.9371429,21 L2.14204082,21 C1.5477551,21 1.04163265,20.7926531 0.625306122,20.3763265 C0.207346939,19.9583673 0,19.4538776 0,18.8579592 L0,3.14367347 C0,2.5477551 0.207346939,2.04326531 0.625306122,1.62530612 C1.04163265,1.20897959 1.5477551,1 2.14204082,1 L17.8579592,1 C18.4522449,1 18.9583673,1.20897959 19.3746939,1.62530612 C19.7926531,2.04326531 20,2.5477551 20,3.14367347 L20,18.8579592 Z" id="Fill-1" fill="#B9C2C3" mask="url(#mask-2)"></path>
                                    </g>
                                </g>
                            </g>
                        </g>
                    </g>
                </g>
            </g>
        </g>
    </g>
</svg>