<?xml version="1.0" encoding="UTF-8"?>
<svg width="21px" height="23px" viewBox="0 0 21 23" version="1.1" xmlns="http://www.w3.org/2000/svg" xmlns:xlink="http://www.w3.org/1999/xlink">
    <!-- Generator: Sketch 63.1 (92452) - https://sketch.com -->
    <title>Google Play</title>
    <desc>Created with Sketch.</desc>
    <g id="Symbols" stroke="none" stroke-width="1" fill="none" fill-rule="evenodd">
        <g id="Footer" transform="translate(-1252.000000, -142.000000)" fill="#B9C2C3">
            <g id="Group-7">
                <g>
                    <g id="Footer">
                        <g id="Link-3-Copy">
                            <g transform="translate(1125.000000, 64.000000)">
                                <g id="Group-22" transform="translate(0.000000, 36.000000)">
                                    <path d="M147.371791,51.6280125 C147.775744,51.9393252 147.98485,52.4037426 147.999107,53.0229657 C148.014948,53.6455912 147.8201,54.1100085 147.414562,54.4196201 L144.816586,56 L142,53.0229657 L144.816586,50 L147.371791,51.6280125 Z M131,64 L141.213558,54 L144,56.7155386 L131,64 Z M141.213558,53 L144,50.2844614 L131,43 L141.213558,53 Z M128.025823,42 L140,53.5 L128.025823,65 C127.342509,64.6714286 127,64.1473571 127,63.4277857 L127,43.5722143 C127,42.8542857 127.342509,42.3302143 128.025823,42 L128.025823,42 Z" id="Google-Play"></path>
                                </g>
                            </g>
                        </g>
                    </g>
                </g>
            </g>
        </g>
    </g>
</svg>