<?xml version="1.0" encoding="UTF-8"?>
<svg width="19px" height="18px" viewBox="0 0 19 18" version="1.1" xmlns="http://www.w3.org/2000/svg" xmlns:xlink="http://www.w3.org/1999/xlink">
    <!-- Generator: Sketch 63.1 (92452) - https://sketch.com -->
    <title>RSS</title>
    <desc>Created with Sketch.</desc>
    <defs>
        <polygon id="path-1" points="0 1 19 1 19 19 0 19"></polygon>
    </defs>
    <g id="Symbols" stroke="none" stroke-width="1" fill="none" fill-rule="evenodd">
        <g id="Footer" transform="translate(-1252.000000, -102.000000)">
            <g id="Group-7">
                <g>
                    <g id="Footer">
                        <g id="Link-3-Copy">
                            <g transform="translate(1125.000000, 64.000000)">
                                <g id="Group-22" transform="translate(0.000000, 36.000000)">
                                    <g id="RSS" transform="translate(127.000000, 1.000000)">
                                        <mask id="mask-2" fill="white">
                                            <use xlink:href="#path-1"></use>
                                        </mask>
                                        <g id="Clip-11"></g>
                                        <path d="M4.4260682,14.8063812 C4.93032567,15.284156 5.1807275,15.8633761 5.1807275,16.5440415 C5.1807275,17.2263431 4.93032567,17.8055631 4.4260682,18.2833379 C3.92181072,18.7611126 3.31048487,19 2.59209066,19 C1.87196954,19 1.26064369,18.7611126 0.756386215,18.2833379 C0.252128738,17.8055631 0,17.2263431 0,16.5440415 C0,15.8633761 0.252128738,15.284156 0.756386215,14.8063812 C1.26064369,14.3286065 1.87196954,14.0913553 2.59209066,14.0913553 C3.31048487,14.0913553 3.92181072,14.3286065 4.4260682,14.8063812 M12.0883642,18.116444 C12.1073602,18.3553313 12.0296493,18.5598582 11.8604122,18.7300245 C11.6980827,18.9100082 11.4856729,19 11.2266365,19 L9.40474733,19 C9.17852222,19 8.98683531,18.9296428 8.82450585,18.7889283 C8.66217638,18.6482138 8.57237711,18.4715026 8.55510802,18.2571584 C8.35651346,16.3067903 7.52587015,14.6378511 6.064905,13.2536133 C4.60393984,11.8693755 2.84249249,11.0823561 0.784016762,10.8941914 C0.557791661,10.8778293 0.371285471,10.7927461 0.222771283,10.6389419 C0.0742570942,10.4851377 0,10.3035179 0,10.0891737 L0,8.362967 C0,8.11753477 0.0949800042,7.91628034 0.284940013,7.76247614 C0.436908019,7.61848923 0.630321846,7.54649577 0.863454584,7.54649577 L0.93253095,7.54649577 C2.37104629,7.65612217 3.74566598,7.9997273 5.05984386,8.57403872 C6.37229483,9.14998636 7.53795852,9.92391601 8.55510802,10.8941914 C9.57916515,11.857922 10.3959932,12.9623671 11.0038652,14.2058904 C11.6100103,15.4510499 11.9726613,16.753477 12.0883642,18.116444 M18.9977278,18.1426234 C19.0149968,18.3733297 18.9338321,18.5729479 18.7542336,18.7431143 C18.5919041,18.9149168 18.384675,19 18.1325463,19 L16.2035887,19 C15.970456,19 15.7701345,18.9247341 15.6043512,18.7758386 C15.436841,18.626943 15.3487687,18.4453232 15.3401341,18.2326152 C15.2330658,16.4000545 14.7788887,14.6591219 13.9776028,13.0098173 C13.1763169,11.3621489 12.1367176,9.93046087 10.855351,8.7147532 C9.57225752,7.50068176 8.06121199,6.51568039 6.32221446,5.75647668 C4.58149002,4.99727298 2.74405867,4.56367603 0.8099204,4.45241342 C0.585422208,4.44423234 0.39373529,4.36078538 0.236586556,4.20370875 C0.0794378217,4.04499591 0,3.86010363 0,3.64739569 L0,1.81974366 C0,1.58085629 0.0897992767,1.3845105 0.271124739,1.2307063 C0.431727292,1.0769021 0.630321846,1 0.863454584,1 L0.904900404,1 C3.26040451,1.11126261 5.51574788,1.62339787 7.67093052,2.53476957 C9.82438625,3.44777747 11.7378016,4.69948187 13.4111766,6.29315517 C15.0931861,7.8786474 16.4142716,9.69157349 17.377887,11.7319335 C18.3397754,13.7739296 18.8802979,15.9108263 18.9977278,18.1426234" id="Fill-10" fill="#B9C2C3" mask="url(#mask-2)"></path>
                                    </g>
                                </g>
                            </g>
                        </g>
                    </g>
                </g>
            </g>
        </g>
    </g>
</svg>