<?xml version="1.0" encoding="UTF-8"?>
<svg width="68px" height="74px" viewBox="0 0 68 74" version="1.1" xmlns="http://www.w3.org/2000/svg" xmlns:xlink="http://www.w3.org/1999/xlink">
    <!-- Generator: Sketch 64 (93537) - https://sketch.com -->
    <title>directions_boat-24px</title>
    <desc>Created with Sketch.</desc>
    <g id="UI-Theme-Round-3" stroke="none" stroke-width="1" fill="none" fill-rule="evenodd">
        <g id="Home---RD-3-Resources" transform="translate(-867.000000, -2923.000000)">
            <g id="Group-5" transform="translate(15.000000, 2812.000000)">
                <g id="directions_boat-24px" transform="translate(846.000000, 108.000000)">
                    <polygon id="Path" points="0 0 80 0 80 80 0 80"></polygon>
                    <path d="M66.6666667,70 C62.0333333,70 57.4,68.4333333 53.3333333,65.6 C45.2,71.3 34.8,71.3 26.6666667,65.6 C22.6,68.4333333 17.9666667,70 13.3333333,70 L6.66666667,70 L6.66666667,76.6666667 L13.3333333,76.6666667 C17.9333333,76.6666667 22.4666667,75.5 26.6666667,73.3666667 C35.0666667,77.6666667 44.9333333,77.6666667 53.3333333,73.3666667 C57.5333333,75.5333333 62.0666667,76.6666667 66.6666667,76.6666667 L73.3333333,76.6666667 L73.3333333,70 L66.6666667,70 Z M13.1666667,63.3333333 L13.3333333,63.3333333 C18.6666667,63.3333333 23.4,60.4 26.6666667,56.6666667 C29.9333333,60.4 34.6666667,63.3333333 40,63.3333333 C45.3333333,63.3333333 50.0666667,60.4 53.3333333,56.6666667 C56.6,60.4 61.3333333,63.3333333 66.6666667,63.3333333 L66.8333333,63.3333333 L73.1333333,41.0666667 C73.4,40.2 73.3333333,39.2666667 72.9333333,38.4666667 C72.5333333,37.6666667 71.8,37.0666667 70.9333333,36.8 L66.6666667,35.4 L66.6666667,20 C66.6666667,16.3333333 63.6666667,13.3333333 60,13.3333333 L50,13.3333333 L50,3.33333333 L30,3.33333333 L30,13.3333333 L20,13.3333333 C16.3333333,13.3333333 13.3333333,16.3333333 13.3333333,20 L13.3333333,35.4 L9.03333333,36.8 C8.16666667,37.0666667 7.43333333,37.6666667 7.03333333,38.4666667 C6.63333333,39.2666667 6.53333333,40.2 6.83333333,41.0666667 L13.1666667,63.3333333 Z M20,20 L60,20 L60,33.2333333 L40,26.6666667 L20,33.2333333 L20,20 Z" id="Shape" fill="#FD5809" fill-rule="nonzero" opacity="0.60437593"></path>
                </g>
            </g>
        </g>
    </g>
</svg>