<?xml version="1.0" encoding="UTF-8"?>
<svg width="67px" height="48px" viewBox="0 0 67 48" version="1.1" xmlns="http://www.w3.org/2000/svg" xmlns:xlink="http://www.w3.org/1999/xlink">
    <!-- Generator: Sketch 64 (93537) - https://sketch.com -->
    <title>supervisor_account-24px</title>
    <desc>Created with Sketch.</desc>
    <g id="UI-Theme-Round-3" stroke="none" stroke-width="1" fill="none" fill-rule="evenodd" opacity="0.701660156">
        <g id="Home---RD-3-Resources" transform="translate(-137.000000, -2937.000000)">
            <g id="Group-5" transform="translate(15.000000, 2812.000000)">
                <g id="supervisor_account-24px" transform="translate(115.000000, 109.000000)">
                    <polygon id="Path" points="0 0 80 0 80 80 0 80"></polygon>
                    <path d="M55.34,40 C59.9216,40 63.6068,36.288 63.6068,31.7142857 C63.6068,27.1405714 59.9216,23.4285714 55.34,23.4285714 C50.7584,23.4285714 47.04,27.1405714 47.04,31.7142857 C47.04,36.288 50.7584,40 55.34,40 Z M30.44,36.6857143 C35.9512,36.6857143 40.3668,32.2445714 40.3668,26.7428571 C40.3668,21.2411429 35.9512,16.8 30.44,16.8 C24.9288,16.8 20.48,21.2411429 20.48,26.7428571 C20.48,32.2445714 24.9288,36.6857143 30.44,36.6857143 Z M55.34,46.6285714 C49.2644,46.6285714 37.08,49.6777143 37.08,55.7428571 L37.08,63.2 L73.6,63.2 L73.6,55.7428571 C73.6,49.6777143 61.4156,46.6285714 55.34,46.6285714 Z M30.44,43.3142857 C22.7044,43.3142857 7.2,47.192 7.2,54.9142857 L7.2,63.2 L30.44,63.2 L30.44,55.7428571 C30.44,52.9257143 31.5356,47.9874286 38.3084,44.2422857 C35.42,43.6457143 32.6312,43.3142857 30.44,43.3142857 Z" id="Shape" fill="#FD5809" fill-rule="nonzero"></path>
                </g>
            </g>
        </g>
    </g>
</svg>