<svg width="20" height="20" viewBox="0 0 20 20" fill="none" xmlns="http://www.w3.org/2000/svg">
<g clip-path="url(#clip0_969_291)">
<path d="M15 1.66666L18.3333 4.99999M1.66663 18.3333L2.73029 14.4332C2.79969 14.1788 2.83439 14.0515 2.88765 13.9329C2.93495 13.8276 2.99306 13.7274 3.06106 13.6341C3.13764 13.529 3.23088 13.4357 3.41738 13.2492L12.0286 4.63806C12.1936 4.47305 12.2761 4.39055 12.3712 4.35964C12.4549 4.33245 12.545 4.33245 12.6287 4.35964C12.7239 4.39055 12.8064 4.47305 12.9714 4.63806L15.3619 7.02859C15.5269 7.19359 15.6094 7.2761 15.6403 7.37123C15.6675 7.45492 15.6675 7.54506 15.6403 7.62875C15.6094 7.72388 15.5269 7.80639 15.3619 7.9714L6.75071 16.5826C6.56422 16.7691 6.47097 16.8623 6.36586 16.9389C6.27254 17.0069 6.1724 17.065 6.06706 17.1123C5.94841 17.1656 5.82119 17.2003 5.56674 17.2697L1.66663 18.3333Z" stroke="#667085" stroke-width="1.66667" stroke-linecap="round" stroke-linejoin="round"/>
</g>
<defs>
<clipPath id="clip0_969_291">
<rect width="20" height="20" fill="white"/>
</clipPath>
</defs>
</svg>
