<?xml version="1.0" encoding="UTF-8"?>
<svg width="24px" height="17px" viewBox="0 0 24 17" version="1.1" xmlns="http://www.w3.org/2000/svg" xmlns:xlink="http://www.w3.org/1999/xlink">
    <!-- Generator: Sketch 63.1 (92452) - https://sketch.com -->
    <title>Youtube</title>
    <desc>Created with Sketch.</desc>
    <g id="Symbols" stroke="none" stroke-width="1" fill="none" fill-rule="evenodd">
        <g id="Navigation" transform="translate(-1388.000000, -23.000000)" fill="#00447C" fill-rule="nonzero">
            <g id="Group-17">
                <path d="M1400,39.8660714 C1403.35714,39.8660714 1406.15625,39.78125 1408.39732,39.6116071 C1408.40625,39.6116071 1408.47991,39.6049107 1408.6183,39.5915179 C1408.7567,39.578125 1408.85938,39.5647321 1408.92634,39.5513393 C1408.9933,39.5379464 1409.10045,39.5178571 1409.24777,39.4910714 C1409.39509,39.4642857 1409.52232,39.4285714 1409.62946,39.3839286 C1409.73661,39.3392857 1409.86161,39.2834821 1410.00446,39.2165179 C1410.14732,39.1495536 1410.28571,39.0647321 1410.41964,38.9620536 C1410.55357,38.859375 1410.68304,38.7410714 1410.80804,38.6071429 L1410.80804,38.6071429 L1410.99554,38.3794643 C1411.12054,38.2276786 1411.26339,37.953125 1411.42411,37.5558036 C1411.58482,37.1584821 1411.69643,36.7142857 1411.75893,36.2232143 C1411.92857,34.9285714 1412.00893,33.6339286 1412,32.3392857 L1412,32.3392857 L1412,29.9821429 C1411.99107,29.6160714 1411.96652,29.109375 1411.92634,28.4620536 C1411.88616,27.8147321 1411.83036,27.2053571 1411.75893,26.6339286 C1411.69643,26.1428571 1411.57812,25.6919643 1411.40402,25.28125 C1411.22991,24.8705357 1411.10045,24.609375 1411.01562,24.4977679 C1410.9308,24.3861607 1410.86161,24.3035714 1410.80804,24.25 C1410.68304,24.1160714 1410.55357,23.9977679 1410.41964,23.8950893 C1410.28571,23.7924107 1410.14732,23.7053571 1410.00446,23.6339286 C1409.86161,23.5625 1409.73661,23.5044643 1409.62946,23.4598214 C1409.52232,23.4151786 1409.39509,23.3794643 1409.24777,23.3526786 C1409.10045,23.3258929 1408.99554,23.3058036 1408.93304,23.2924107 C1408.87054,23.2790179 1408.76786,23.265625 1408.625,23.2522321 C1408.48214,23.2388393 1408.40625,23.2321429 1408.39732,23.2321429 L1408.39732,23.2321429 L1407.41964,23.1785714 C1406.76786,23.1339286 1405.7433,23.0915179 1404.34598,23.0513393 C1402.94866,23.0111607 1401.5,22.9910714 1400,22.9910714 C1396.64286,22.9910714 1393.84375,23.0714286 1391.60268,23.2321429 C1391.59375,23.2321429 1391.51786,23.2388393 1391.375,23.2522321 C1391.23214,23.265625 1391.12946,23.2790179 1391.06696,23.2924107 C1391.00446,23.3058036 1390.89955,23.3258929 1390.75223,23.3526786 C1390.60491,23.3794643 1390.47768,23.4151786 1390.37054,23.4598214 C1390.26339,23.5044643 1390.13839,23.5625 1389.99554,23.6339286 C1389.85268,23.7053571 1389.71429,23.7924107 1389.58036,23.8950893 C1389.44643,23.9977679 1389.31696,24.1160714 1389.19196,24.25 L1389.19196,24.25 L1389.00446,24.4776786 C1388.87946,24.6294643 1388.73661,24.9040179 1388.57589,25.3013393 C1388.41518,25.6986607 1388.30357,26.1428571 1388.24107,26.6339286 C1388.07143,27.9285714 1387.99107,29.2232143 1388,30.5178571 L1388,30.5178571 L1388,32.875 C1388.00893,33.2410714 1388.03348,33.7477679 1388.07366,34.3950893 C1388.11384,35.0424107 1388.16964,35.6517857 1388.24107,36.2232143 C1388.30357,36.7142857 1388.42188,37.1651786 1388.59598,37.5758929 C1388.77009,37.9866071 1388.89955,38.2477679 1388.98438,38.359375 C1389.0692,38.4709821 1389.13839,38.5535714 1389.19196,38.6071429 C1389.40625,38.8303571 1389.65848,39.0133929 1389.94866,39.15625 C1390.23884,39.2991071 1390.46652,39.3928571 1390.6317,39.4375 C1390.79688,39.4821429 1391.04018,39.5267857 1391.36161,39.5714286 L1391.36161,39.5714286 L1391.84375,39.625 L1392.5,39.6785714 C1392.92857,39.7053571 1393.82366,39.7388393 1395.18527,39.7790179 C1396.54688,39.8191964 1398.15179,39.8482143 1400,39.8660714 Z M1397.52232,34.5357143 L1397.52232,27.7991071 L1404.00446,31.1875 L1397.52232,34.5357143 Z" id="Youtube"></path>
            </g>
        </g>
    </g>
</svg>