<?xml version="1.0" encoding="UTF-8"?>
<svg width="40px" height="40px" viewBox="0 0 40 40" version="1.1" xmlns="http://www.w3.org/2000/svg" xmlns:xlink="http://www.w3.org/1999/xlink">
    <title>Twitter Share Hover</title>
    <g id="Symbols" stroke="none" stroke-width="1" fill="none" fill-rule="evenodd">
        <g id="Social_Icon-Links" transform="translate(-56.000000, -50.000000)">
            <g id="Hover">
                <g transform="translate(0.000000, 50.000000)">
                    <g id="Twitter-Share-Hover" transform="translate(56.000000, 0.000000)">
                        <circle id="Oval-Copy" fill="#205493" cx="20" cy="20" r="20"></circle>
                        <path d="M17.4285714,25.4285714 C18.452381,25.4285714 19.4136905,25.266369 20.3125,24.9419643 C21.2113095,24.6175595 21.9791667,24.1830357 22.6160714,23.6383929 C23.2529762,23.09375 23.8020833,22.4672619 24.2633929,21.7589286 C24.7247024,21.0505952 25.0684524,20.3110119 25.2946429,19.5401786 C25.5208333,18.7693452 25.6339286,17.9970238 25.6339286,17.2232143 C25.6339286,17.0565476 25.6309524,16.9315476 25.625,16.8482143 C26.1904762,16.4375 26.672619,15.9404762 27.0714286,15.3571429 C26.5178571,15.5952381 25.9642857,15.7440476 25.4107143,15.8035714 C26.0357143,15.4285714 26.4583333,14.8988095 26.6785714,14.2142857 C26.1071429,14.5535714 25.4970238,14.7857143 24.8482143,14.9107143 C24.2767857,14.3035714 23.5744048,14 22.7410714,14 C21.9434524,14 21.2633929,14.28125 20.7008929,14.84375 C20.1383929,15.40625 19.8571429,16.0863095 19.8571429,16.8839286 C19.8571429,17.0982143 19.8809524,17.3184524 19.9285714,17.5446429 C18.75,17.485119 17.6443452,17.1889881 16.6116071,16.65625 C15.578869,16.1235119 14.702381,15.4136905 13.9821429,14.5267857 C13.7202381,14.9732143 13.5892857,15.4583333 13.5892857,15.9821429 C13.5892857,16.4761905 13.7053571,16.9345238 13.9375,17.3571429 C14.1696429,17.7797619 14.4821429,18.1220238 14.875,18.3839286 C14.4107143,18.3660714 13.9761905,18.2440476 13.5714286,18.0178571 L13.5714286,18.0178571 L13.5714286,18.0535714 C13.5714286,18.75 13.7901786,19.3616071 14.2276786,19.8883929 C14.6651786,20.4151786 15.2172619,20.7470238 15.8839286,20.8839286 C15.6339286,20.9494048 15.3809524,20.9821429 15.125,20.9821429 C14.9583333,20.9821429 14.7767857,20.9672619 14.5803571,20.9375 C14.764881,21.514881 15.1041667,21.9895833 15.5982143,22.3616071 C16.0922619,22.733631 16.6517857,22.9255952 17.2767857,22.9375 C16.2291667,23.7589286 15.0357143,24.1696429 13.6964286,24.1696429 C13.4404762,24.1696429 13.2083333,24.1577381 13,24.1339286 C14.3392857,24.9970238 15.8154762,25.4285714 17.4285714,25.4285714 Z" id="" fill="#FFFFFF" fill-rule="nonzero"></path>
                    </g>
                </g>
            </g>
        </g>
    </g>
</svg>