<?xml version="1.0" encoding="UTF-8"?>
<svg width="1200pt" height="1200pt" version="1.1" viewBox="0 0 1200 1200" xmlns="http://www.w3.org/2000/svg">
 <g fill="#ffffff">
  <path d="m108.1 536.99h983.81c46.441 0 84.098-37.656 84.098-84.098l-0.003906-346.46c0-46.441-37.656-84.098-84.098-84.098h-983.8c-46.441 0-84.098 37.645-84.098 84.098v346.46c0 46.438 37.656 84.094 84.098 84.094zm-2.5234-430.56c0-1.3906 1.1289-2.5195 2.5195-2.5195h983.81c1.3906 0 2.5195 1.1289 2.5195 2.5195v346.46c0 1.3906-1.1289 2.5195-2.5195 2.5195l-983.8-0.003906c-1.3906 0-2.5195-1.1289-2.5195-2.5195z"/>
  <path d="m292.22 344.04c9.3008 10.777 22.812 16.957 37.043 16.957s27.73-6.1797 37.043-16.957l71.316-82.586c14.723-17.051 12.828-42.805-4.2109-57.527-17.051-14.734-42.805-12.84-57.527 4.2109l-46.633 53.988-46.633-53.988c-14.723-17.051-40.477-18.949-57.527-4.2109-17.051 14.723-18.938 40.477-4.2109 57.527z"/>
  <path d="m1176 747.11c0-46.441-37.656-84.098-84.098-84.098h-983.8c-46.441 0-84.098 37.656-84.098 84.098v346.46c0 46.441 37.656 84.098 84.098 84.098h983.81c46.441 0 84.098-37.656 84.098-84.098zm-81.574 346.46c0 1.3906-1.1289 2.5195-2.5195 2.5195l-983.81 0.003906c-1.3906 0-2.5195-1.1289-2.5195-2.5195l-0.003906-346.46c0-1.3906 1.1289-2.5195 2.5195-2.5195h983.81c1.3906 0 2.5195 1.1289 2.5195 2.5195z"/>
  <path d="m375.9 848.82-46.633 53.988-46.633-53.988c-14.723-17.051-40.477-18.949-57.527-4.2109-17.051 14.723-18.938 40.477-4.2109 57.527l71.316 82.598c9.3008 10.777 22.812 16.957 37.043 16.957 14.23 0 27.73-6.1797 37.043-16.957l71.316-82.586c14.723-17.051 12.828-42.805-4.2109-57.527-17.039-14.75-42.789-12.852-57.504 4.1992z"/>
 </g>
</svg>
