<?xml version="1.0" encoding="UTF-8"?>
<svg width="1200pt" height="1200pt" version="1.1" viewBox="0 0 1200 1200" xmlns="http://www.w3.org/2000/svg">
 <g fill="#30217c">
  <path d="m497.45 656.25h121.33c29.027 0 52.648-23.617 52.648-52.648 0-25.711-18.527-47.18-42.934-51.75-4.4062-34.914-34.289-62.008-70.383-62.008s-65.977 27.094-70.379 62.012c-24.406 4.5703-42.934 26.035-42.934 51.75 0 29.027 23.617 52.645 52.648 52.645zm0-77.168h19.086l-1.1094-15.094c-0.078125-1.0586-0.11719-2.125-0.11719-3.207-0.003906-23.605 19.199-42.812 42.805-42.812s42.812 19.207 42.812 42.812c0 1.0781-0.042969 2.1484-0.12109 3.207l-1.1094 15.094h19.086c13.523 0 24.523 11 24.523 24.523-0.003907 13.52-11.004 24.52-24.523 24.52h-121.33c-13.52 0-24.523-11-24.523-24.523 0-13.52 11.004-24.52 24.523-24.52z"/>
  <path d="m30.469 349.22v562.5h1106.2v-562.5zm1078.1 28.125v488.54l-109.18-99.16c-5.0664-4.6016-12.715-4.8867-18.113-0.67187l-119.8 93.621-150.88-147.85c-2.7461-2.6875-6.4688-4.1641-10.309-4.0117-3.8398 0.12891-7.4609 1.8203-10.02 4.6875l-146.84 164.38-256.49-270.88c-2.7734-2.9258-6.6328-4.5117-10.699-4.3867-4.0312 0.14062-7.8047 2.0039-10.371 5.1172l-207.3 251.73v-481.11zm-1034.3 506.25 203.15-246.7 233.59 246.7zm500.84 0 126.29-141.37 144.26 141.37zm301.4 0 112.71-88.078 96.977 88.078z"/>
  <path d="m901.17 624.61c28.754 0 52.148-23.395 52.148-52.148 0-28.754-23.395-52.148-52.148-52.148s-52.148 23.395-52.148 52.148c0 28.754 23.395 52.148 52.148 52.148zm0-76.172c13.246 0 24.023 10.777 24.023 24.023 0 13.246-10.777 24.023-24.023 24.023s-24.023-10.777-24.023-24.023c0-13.246 10.777-24.023 24.023-24.023z"/>
  <path d="m902.34 506.84c7.7656 0 14.062-6.2969 14.062-14.062v-25.781c0-7.7656-6.2969-14.062-14.062-14.062s-14.062 6.2969-14.062 14.062v25.781c0 7.7656 6.2969 14.062 14.062 14.062z"/>
  <path d="m902.34 638.09c-7.7656 0-14.062 6.2969-14.062 14.062v25.781c0 7.7656 6.2969 14.062 14.062 14.062s14.062-6.2969 14.062-14.062v-25.781c0-7.7656-6.2969-14.062-14.062-14.062z"/>
  <path d="m836.05 526.05c2.7461 2.7461 6.3438 4.1211 9.9453 4.1211 3.5977 0 7.1992-1.375 9.9414-4.1172 5.4922-5.4922 5.4922-14.395 0.003906-19.887l-18.227-18.23c-5.4922-5.4922-14.398-5.4961-19.887 0-5.4922 5.4922-5.4922 14.395-0.003906 19.887z"/>
  <path d="m968.64 618.87c-5.4922-5.4922-14.398-5.4922-19.887 0-5.4922 5.4922-5.4922 14.395-0.003906 19.887l18.227 18.23c2.7461 2.7461 6.3438 4.1211 9.9453 4.1211 3.5977 0 7.1992-1.375 9.9414-4.1172 5.4922-5.4922 5.4922-14.395 0.003906-19.887z"/>
  <path d="m967.97 572.46c0 7.7656 6.2969 14.062 14.062 14.062h25.781c7.7656 0 14.062-6.2969 14.062-14.062 0-7.7656-6.2969-14.062-14.062-14.062h-25.781c-7.7656 0-14.062 6.2969-14.062 14.062z"/>
  <path d="m796.88 586.52h25.781c7.7656 0 14.062-6.2969 14.062-14.062 0-7.7656-6.2969-14.062-14.062-14.062h-25.781c-7.7656 0-14.062 6.2969-14.062 14.062 0 7.7656 6.2969 14.062 14.062 14.062z"/>
  <path d="m958.69 530.18c3.5977 0 7.1992-1.375 9.9453-4.1211l18.227-18.23c5.4922-5.4922 5.4922-14.395-0.003906-19.887-5.4922-5.4922-14.395-5.4922-19.887 0l-18.227 18.23c-5.4922 5.4922-5.4922 14.395 0.003906 19.887 2.7461 2.75 6.3438 4.1211 9.9414 4.1211z"/>
  <path d="m836.05 618.87-18.227 18.23c-5.4922 5.4922-5.4922 14.395 0.003906 19.887 2.7461 2.7461 6.3438 4.1172 9.9414 4.1172 3.5977 0 7.1992-1.375 9.9453-4.1211l18.227-18.23c5.4922-5.4922 5.4922-14.395-0.003906-19.887-5.4922-5.4922-14.395-5.4922-19.887 0.003907z"/>
 </g>
</svg>
