<?xml version="1.0" encoding="UTF-8"?>
<svg width="1200pt" height="1200pt" version="1.1" viewBox="0 0 1200 1200" xmlns="http://www.w3.org/2000/svg">
 <path d="m750 887.5c0-20.699-16.801-37.5-37.5-37.5h-575c-20.699 0-37.5 16.801-37.5 37.5s16.801 37.5 37.5 37.5h575c20.699 0 37.5-16.801 37.5-37.5zm350-200c0-20.699-16.801-37.5-37.5-37.5h-925c-20.699 0-37.5 16.801-37.5 37.5s16.801 37.5 37.5 37.5h925c20.699 0 37.5-16.801 37.5-37.5zm0-200c0-20.699-16.801-37.5-37.5-37.5h-925c-20.699 0-37.5 16.801-37.5 37.5s16.801 37.5 37.5 37.5h925c20.699 0 37.5-16.801 37.5-37.5zm0-200c0-20.699-16.801-37.5-37.5-37.5h-925c-20.699 0-37.5 16.801-37.5 37.5s16.801 37.5 37.5 37.5h925c20.699 0 37.5-16.801 37.5-37.5z" fill="#30217c"/>
</svg>
