<?xml version="1.0" encoding="UTF-8"?>
<svg width="1200pt" height="1200pt" version="1.1" viewBox="0 0 1200 1200" xmlns="http://www.w3.org/2000/svg">
 <g fill="#ffffff">
  <path d="m1125 262.5h-1050c-41.25 0-75 33.75-75 75v300c0 41.25 33.75 75 75 75h761.85l-8.9531-37.5h-752.9c-20.68 0-37.5-16.82-37.5-37.5v-300c0-20.68 16.82-37.5 37.5-37.5h1050c20.68 0 37.5 16.82 37.5 37.5v300c0 17.879-12.59 32.812-29.363 36.543l3.3555 1.0234c13.285 4.0391 24.086 12.789 31.125 24 19.531-13.574 32.383-36.121 32.383-61.566v-300c0-41.25-33.75-75-75-75z"/>
  <path d="m1070.4 766.35 55.996-19.781c7.6406-2.6992 12.684-9.9922 12.496-18.102-0.17969-8.0898-5.5391-15.16-13.285-17.512l-238.88-72.637c-6.4297-1.9688-13.414-0.32031-18.301 4.2734-4.8945 4.6016-6.9453 11.484-5.3906 18.02l54.121 226.73c1.8008 7.5469 8.0625 13.199 15.758 14.23 7.6875 0.99219 15.215-2.7852 18.938-9.5898l28.211-51.648 89.605 91.555c3.6641 3.7305 8.5234 5.6328 13.414 5.6328 4.2383 0 8.5039-1.4336 12-4.3516l60.711-50.625c4.0234-3.3477 6.4492-8.2305 6.7109-13.461 0.26172-5.2227-1.668-10.32-5.3164-14.062zm13.949 126.91-95.211-97.285c-3.5547-3.6289-8.3984-5.6328-13.406-5.6328-0.85156 0-1.7148 0.054687-2.5703 0.17969-5.8867 0.81641-11.035 4.3789-13.875 9.582l-16.977 31.078-35.211-147.49 153 46.527-29.898 10.566c-6.0469 2.1367-10.574 7.1992-12.02 13.445-1.4453 6.2344 0.38281 12.777 4.8672 17.363l93.133 95.137z"/>
 </g>
</svg>
