<?xml version="1.0" encoding="UTF-8"?>
<svg width="1200pt" height="1200pt" version="1.1" viewBox="0 0 1200 1200" xmlns="http://www.w3.org/2000/svg">
 <g fill="#ffffff">
  <path d="m1087.2 60h-974.4c-29.16 0-52.801 23.641-52.801 52.801v974.4c0 29.16 23.641 52.801 52.801 52.801h974.4c29.16 0 52.801-23.641 52.801-52.801v-974.4c0-29.16-23.641-52.801-52.801-52.801zm17.402 1027.2c0 9.6016-7.8008 17.398-17.398 17.398l-974.4 0.003906c-9.6016 0-17.398-7.8008-17.398-17.398l-0.003906-974.4c0-9.6016 7.8008-17.398 17.398-17.398l974.4-0.003906c9.6016 0 17.398 7.8008 17.398 17.398z"/>
  <path d="m982.56 310.56h-762.24c-29.16 0-52.801 23.641-52.801 52.801v329.16c0 29.16 23.641 52.801 52.801 52.801h762.24c29.16 0 52.801-23.641 52.801-52.801v-329.16c0-29.16-23.758-52.801-52.801-52.801zm17.402 381.96c0 9.6016-7.8008 17.398-17.398 17.398l-762.24 0.003906c-9.6016 0-17.398-7.8008-17.398-17.398v-3.1211l157.56-87.121 147.6 71.641c6 3 13.199 2.1602 18.602-1.9219l279.24-214.8 193.92 137.52-0.003906 97.801zm0-141.12-184.2-130.44c-6.3594-4.4414-14.879-4.3203-21 0.35937l-280.92 216-145.92-70.922c-5.1602-2.5195-11.281-2.3984-16.32 0.35937l-148.56 82.078v-285.6c0-9.6016 7.8008-17.398 17.398-17.398h762.24c9.6016 0 17.398 7.8008 17.398 17.398l0.003906 188.16z"/>
  <path d="m508.56 844.56h-323.4c-9.8398 0-17.762 7.9219-17.762 17.762 0 9.8398 7.9219 17.762 17.762 17.762h323.28c9.8398 0 17.762-7.9219 17.762-17.762-0.003906-9.8398-7.9219-17.762-17.645-17.762z"/>
  <path d="m508.56 976.2h-323.4c-9.8398 0-17.762 7.9219-17.762 17.762 0 9.7188 7.9219 17.762 17.762 17.762h323.28c9.8398 0 17.762-7.9219 17.762-17.762-0.003906-9.8398-7.9219-17.762-17.645-17.762z"/>
  <path d="m1017.6 844.56h-323.28c-9.8398 0-17.762 7.9219-17.762 17.762 0 9.8398 7.9219 17.762 17.762 17.762l323.28-0.003906c9.8398 0 17.762-7.9219 17.762-17.762-0.003906-9.8359-7.9219-17.758-17.762-17.758z"/>
  <path d="m1017.6 976.2h-323.28c-9.8398 0-17.762 7.9219-17.762 17.762 0 9.7188 7.9219 17.762 17.762 17.762l323.28-0.003906c9.8398 0 17.762-7.9219 17.762-17.762-0.003906-9.8359-7.9219-17.758-17.762-17.758z"/>
  <path d="m732.36 227.52c9.8398 0 17.762-7.9219 17.762-17.762 0-9.8398-7.9219-17.762-17.762-17.762l-560.28 0.003906c-9.8398 0-17.762 7.9219-17.762 17.762 0 9.7188 7.9219 17.762 17.762 17.762z"/>
  <path d="m805.56 227.52h74.641c9.8398 0 17.762-7.9219 17.762-17.762 0-9.8398-7.9219-17.762-17.762-17.762h-74.641c-9.8398 0-17.762 7.9219-17.762 17.762 0.003906 9.7227 7.9219 17.762 17.762 17.762z"/>
  <path d="m1017.6 192h-74.641c-9.8398 0-17.762 7.9219-17.762 17.762 0 9.7188 7.9219 17.762 17.762 17.762h74.641c9.8398 0 17.762-7.9219 17.762-17.762-0.003906-9.8398-7.9219-17.762-17.762-17.762z"/>
  <path d="m314.52 373.44c-38.762 0-70.441 31.559-70.441 70.441 0 38.762 31.559 70.441 70.441 70.441 38.879 0 70.441-31.559 70.441-70.441 0-38.883-31.68-70.441-70.441-70.441zm0 105.36c-19.32 0-34.922-15.719-34.922-34.922 0-19.199 15.719-34.922 34.922-34.922 19.199 0 34.922 15.719 34.922 34.922 0 19.199-15.602 34.922-34.922 34.922z"/>
 </g>
</svg>
