<?xml version="1.0" encoding="UTF-8"?>
<svg width="1200pt" height="1200pt" version="1.1" viewBox="0 0 1200 1200" xmlns="http://www.w3.org/2000/svg">
 <path d="m700.59 860.95 40.117 258.79c1.793 11.566 10.574 20.805 22.031 23.188 11.461 2.3789 23.195-2.5977 29.445-12.492l63.254-100.12 80.398 139.26c7.7539 13.43 24.922 18.027 38.348 10.277l83.512-48.215c6.4492-3.7227 11.152-9.8555 13.078-17.047 1.9258-7.1914 0.91797-14.855-2.8047-21.305l-80.398-139.26 118.34-4.7148c11.695-0.46484 21.875-8.1406 25.543-19.254s0.054687-23.336-9.0625-30.676l-47.77-38.422h22.309c56.809 0 102.94-46.125 102.94-102.94v-505.34c0-56.816-46.125-102.94-102.94-102.94h-994c-56.809 0-102.94 46.125-102.94 102.94v505.34c0 56.816 46.133 102.94 102.94 102.94zm51.75-32.695c0.019531 0.11719 0.039062 0.23047 0.054687 0.34766l0.046875 0.32812 32.273 208.19 48.066-76.082c5.25-8.3125 14.465-13.27 24.293-13.074 9.8281 0.19531 18.84 5.5195 23.754 14.031l89.594 155.18 34.887-20.141-89.594-155.18c-4.9141-8.5117-5.0195-18.977-0.27344-27.586s13.648-14.109 23.469-14.5l89.926-3.582-303.86-244.41 27.348 176.41 0.011719 0.074218zm252.48-23.453h92.113c25.824 0 46.789-20.965 46.789-46.793v-505.34c0-25.824-20.965-46.793-46.789-46.793h-994c-25.824 0-46.793 20.965-46.793 46.793v505.34c0 25.824 20.969 46.793 46.793 46.793h588.95l-33.488-216c-1.7773-11.453 3.668-22.82 13.707-28.613 10.035-5.793 22.602-4.8281 31.633 2.4375l301.08 242.18zm-453.75-65.879 79.699-46.016c13.418-7.7461 18.023-24.93 10.277-38.352-7.7461-13.418-24.93-18.023-38.352-10.273l-79.699 46.016c-13.418 7.7461-18.023 24.93-10.277 38.352 7.7461 13.418 24.934 18.023 38.352 10.273zm-51.52-141.56 88.898 23.82c14.965 4.0117 30.375-4.8828 34.383-19.852 4.0117-14.965-4.8828-30.371-19.852-34.383l-88.898-23.82c-14.965-4.0117-30.375 4.8828-34.383 19.852-4.0117 14.965 4.8828 30.375 19.852 34.383zm308.16-6.6133 79.699-46.016c13.418-7.7461 18.023-24.93 10.277-38.348-7.7461-13.418-24.934-18.023-38.352-10.277l-79.699 46.016c-13.418 7.7461-18.023 24.934-10.277 38.352 7.7461 13.418 24.93 18.023 38.352 10.277zm-134.28-84.414-46.016-79.703c-7.7461-13.418-24.93-18.023-38.352-10.277-13.418 7.7461-18.023 24.93-10.277 38.352l46.016 79.703c7.7461 13.418 24.93 18.023 38.348 10.277 13.418-7.7461 18.023-24.93 10.277-38.352zm91.035 7.9375 23.82-88.898c4.0117-14.965-4.8867-30.375-19.852-34.383-14.965-4.0117-30.375 4.8828-34.383 19.852l-23.82 88.898c-4.0117 14.965 4.8867 30.375 19.852 34.383 14.965 4.0117 30.375-4.8867 34.383-19.852z" fill="#30217c" fill-rule="evenodd"/>
</svg>
