<?xml version="1.0" encoding="UTF-8"?>
<svg width="1200pt" height="1200pt" version="1.1" viewBox="0 0 1200 1200" xmlns="http://www.w3.org/2000/svg">
 <path d="m93.602 1036.8h1012.8l-0.003906-753.6h-1012.8zm697.2-640.8h265.2v228h-265.2zm0 312h265.2v36h-265.2zm0 72h226.8v36h-226.8zm0 60h265.2v36h-265.2zm0 72h189.6v36h-189.6zm-322.8-516h265.2v228h-265.2zm0 312h265.2v36h-265.2zm0 72h226.8v36h-226.8zm0 60h265.2v36h-265.2zm0 72h189.6v36h-189.6zm-324-516h265.2v228h-265.2zm0 312h265.2v36h-265.2zm0 72h226.8v36h-226.8zm0 60h265.2v36h-265.2zm0 72h189.6v36h-189.6z" fill="#30217c"/>
</svg>
