<?xml version="1.0" encoding="UTF-8"?>
<svg width="1200pt" height="1200pt" version="1.1" viewBox="0 0 1200 1200" xmlns="http://www.w3.org/2000/svg">
 <g fill="#ffffff">
  <path d="m60 64.801v1076.4h1080v-1076.4zm1046.4 1035.6h-1012.8v-993.6h1012.8c-0.003906 0-0.003906 993.6-0.003906 993.6z"/>
  <path d="m169.2 963.6h86.398v10.801h-86.398z"/>
  <path d="m168 171.6h588v31.199h-588z"/>
  <path d="m168 229.2h228v18h-228z"/>
  <path d="m168 836.4h267.6v28.801h-267.6z"/>
  <path d="m170.4 660h403.2v28.801h-403.2z"/>
  <path d="m170.4 718.8h403.2v28.801h-403.2z"/>
  <path d="m170.4 777.6h403.2v28.801h-403.2z"/>
  <path d="m397.2 453.6c0 62.957-51.039 114-114 114-62.961 0-114-51.043-114-114 0-62.961 51.039-114 114-114 62.961 0 114 51.039 114 114"/>
  <path d="m625.2 963.6h86.398v10.801h-86.398z"/>
  <path d="m624 836.4h267.6v28.801h-267.6z"/>
  <path d="m626.4 660h403.2v28.801h-403.2z"/>
  <path d="m626.4 718.8h403.2v28.801h-403.2z"/>
  <path d="m626.4 777.6h403.2v28.801h-403.2z"/>
  <path d="m853.2 453.6c0 62.957-51.039 114-114 114-62.961 0-114-51.043-114-114 0-62.961 51.039-114 114-114 62.961 0 114 51.039 114 114"/>
 </g>
</svg>
