<?xml version="1.0" encoding="UTF-8"?>
<svg width="1200pt" height="1200pt" version="1.1" viewBox="0 0 1200 1200" xmlns="http://www.w3.org/2000/svg">
 <path d="m1074 102h-948c-13.246 0-24 10.754-24 24v948c0 13.246 10.754 24 24 24h276v-48h-252v-900h900v900h-374.57l-0.82812-103.4v-526.09h135.77v26.148c0 13.246 10.754 24 24 24h81.371c13.246 0 24-10.754 24-24l-0.003906-151.81c0-13.246-10.754-24-24-24h-631.5c-13.246 0-24 10.754-24 24v151.81c0 13.246 10.754 24 24 24h81.383c13.246 0 24-10.754 24-24v-26.148h135.77v653.5c0 13.246 10.754 24 24 24h524.61c13.246 0 24-10.754 24-24v-948c0-13.246-10.754-24-24-24z" fill="#30217c"/>
</svg>
