<?xml version="1.0" encoding="UTF-8"?>
<svg width="1200pt" height="1200pt" version="1.1" viewBox="0 0 1200 1200" xmlns="http://www.w3.org/2000/svg">
 <g fill="#30217c">
  <path d="m155.81 305.62c0 37.07-31.145 67.125-69.562 67.125s-69.562-30.055-69.562-67.125 31.145-67.125 69.562-67.125 69.562 30.055 69.562 67.125"/>
  <path d="m155.81 600c0 37.07-31.145 67.125-69.562 67.125s-69.562-30.055-69.562-67.125 31.145-67.125 69.562-67.125 69.562 30.055 69.562 67.125"/>
  <path d="m155.81 894.38c0 37.07-31.145 67.125-69.562 67.125s-69.562-30.055-69.562-67.125 31.145-67.125 69.562-67.125 69.562 30.055 69.562 67.125"/>
  <path d="m262.5 251.25h872.44c26.613 0 48.188 26.613 48.188 48.188v5.625c0 26.613-21.574 48.188-48.188 48.188h-872.44c-26.613 0-48.188-26.613-48.188-48.188v-5.625c0-26.613 21.574-48.188 48.188-48.188z"/>
  <path d="m262.31 549h872.44c26.613 0 48.188 26.613 48.188 48.188v5.625c0 26.613-21.574 48.188-48.188 48.188h-872.44c-26.613 0-48.188-26.613-48.188-48.188v-5.625c0-26.613 21.574-48.188 48.188-48.188z"/>
  <path d="m261.94 846.75h872.44c26.613 0 48.188 26.613 48.188 48.188v5.625c0 26.613-21.574 48.188-48.188 48.188h-872.44c-26.613 0-48.188-26.613-48.188-48.188v-5.625c0-26.613 21.574-48.188 48.188-48.188z"/>
 </g>
</svg>
