<?xml version="1.0" encoding="UTF-8"?>
<svg width="1200pt" height="1200pt" version="1.1" viewBox="0 0 1200 1200" xmlns="http://www.w3.org/2000/svg">
 <g fill="#ffffff">
  <path d="m249.6 864h708c6 0 12-6 12-12v-504c0-6-6-12-12-12h-708c-6 0-12 6-12 12v504c0 6 4.7969 12 12 12zm696-24h-684v-38.398l154.8-168c10.801-10.801 24-16.801 37.199-16.801 14.398 0 27.602 7.1992 37.199 18l40.801 48 15.602 18 87.602 102c2.3984 2.3984 6 3.6016 9.6016 3.6016 2.3984 0 6-1.1992 8.3984-2.3984 4.8008-4.8008 6-12 1.1992-16.801l-90-103.2 110.4-115.2c15.602-15.602 34.801-24 55.199-24 20.398 0 39.602 9.6016 55.199 25.199l159.6 177.6-0.003906 92.395zm-684-480h684v351.6l-141.6-157.2c-19.199-21.602-44.398-33.602-72-33.602-27.602-1.1992-52.801 10.801-73.199 31.199l-109.2 114-39.602-46.801c-14.398-16.801-34.801-26.398-55.199-26.398-20.398 0-40.801 8.3984-56.398 25.199l-136.8 147.61z"/>
  <path d="m1029.6 270h-852c-6 0-12 6-12 12v636c0 6 6 12 12 12h852c6 0 12-6 12-12v-636c0-7.1992-6-12-12-12zm-12 636h-828v-612h828z"/>
  <path d="m555.6 566.4c36 0 66-30 66-66s-30-66-66-66-66 30-66 66c0 37.203 30 66 66 66zm0-108c22.801 0 42 19.199 42 42 0 22.801-19.199 42-42 42-22.801 0-42-19.199-42-42 0-22.797 19.199-42 42-42z"/>
 </g>
</svg>
