<?xml version="1.0" encoding="UTF-8"?>
<svg width="1200pt" height="1200pt" version="1.1" viewBox="0 0 1200 1200" xmlns="http://www.w3.org/2000/svg">
 <g fill="#283d79">
  <path d="m1168.4 457.29-255.18-254.71c-37.836-37.957-99.863-38.148-138.19-0.37109l-63.707 63.707h-238.55c-40.199 0-74.617 24.254-89.762 58.738-33.613-9.6484-70.523-1.0195-96.203 24.562l-254.98 255.11c-18.613 18.18-28.777 42.613-28.848 68.664-0.12109 26.219 10.043 50.965 28.598 69.637l255.24 254.73c19.043 19.105 44.23 28.656 69.277 28.656 24.875 0 49.871-9.457 68.855-28.285l175.91-175.87h145.26l28.906 28.836c18.492 18.574 43.105 28.777 69.227 28.777h0.37109c26.039-0.17969 50.426-10.391 68.594-28.777l255.12-255.11c18.422-18.254 28.656-42.625 28.777-68.762 0.070312-26.109-10.168-50.863-28.707-69.535zm-695.63-151.74h360.62c32.004 0 58.246 25.836 58.246 57.805v200.93l-89.258-89.16c-24.445-24.562-64.691-24.66-89.746 0l-59.676 59.578-59.605-59.578c-24.562-24.562-64.703-24.562-89.746 0l-89.074 89.281v-201.05c-0.011719-31.969 26.16-57.805 58.234-57.805zm-58.246 314.87 116.93-117.19c9.4336-9.2773 24.625-9.3594 33.863-0.12109l122.32 122.38c7.8828 7.6914 20.281 7.6914 28.105 0 7.6914-7.7539 7.6914-20.316 0-27.996l-34.68-34.766 59.543-59.484c9.3594-9.1797 24.625-9.3594 33.742-0.12109l117.3 117.24v104.07c0 31.883-26.242 57.805-58.246 57.805l-360.63 0.007813c-32.062 0-58.246-25.922-58.246-57.805zm-17.438 349.19c-22.766 22.488-59.734 22.391-82.309-0.26562l-255.12-254.76c-11.102-11.137-17.113-25.859-17.113-41.398 0.12109-15.562 6.1445-29.988 17.113-40.754l255.12-255.34c16.008-15.898 39.324-20.219 60.109-12.984v360.3c0 53.723 43.848 97.453 97.883 97.453h72.133zm743.34-402.12-255.36 255.34c-10.621 10.934-25.129 16.934-40.633 17.016h-0.19141c-15.504 0-30.145-6.0859-41.195-17.125l-0.86328-0.86328h31.199c53.965 0 97.945-43.727 97.945-97.453v-361.04c0-53.809-43.98-97.441-97.945-97.441h-66l35.543-35.699c22.754-22.391 59.664-22.297 82.246 0.37109l255.25 254.75c11.039 11.125 17.184 25.766 17.184 41.398-0.12891 15.57-6.2148 29.898-17.184 40.758z"/>
  <path d="m625.5 460.12c38.449 0 69.781-31.297 69.781-69.816 0-38.363-31.332-69.684-69.781-69.684-38.461 0-69.84 31.32-69.84 69.684-0.011718 38.508 31.367 69.816 69.84 69.816zm0-99.863c16.559 0 30.086 13.488 30.086 30.047 0 16.621-13.523 30.203-30.086 30.203-16.633 0-30.086-13.586-30.086-30.203-0.011718-16.562 13.453-30.047 30.086-30.047z"/>
 </g>
</svg>
