<?xml version="1.0" encoding="UTF-8"?>
<svg width="1200pt" height="1200pt" version="1.1" viewBox="0 0 1200 1200" xmlns="http://www.w3.org/2000/svg">
 <g fill="#30217c">
  <path d="m364.4 344.56c-38.77 0-70.312 31.543-70.312 70.312v370.26c0 38.77 31.543 70.312 70.312 70.312h471.2c38.77 0 70.312-31.543 70.312-70.312v-370.26c0-38.77-31.543-70.312-70.312-70.312zm494.64 70.312v370.26c0 12.922-10.516 23.438-23.438 23.438h-471.2c-12.922 0-23.438-10.516-23.438-23.438v-370.26c0-12.922 10.516-23.438 23.438-23.438h471.2c12.922 0 23.438 10.516 23.438 23.438z"/>
  <path d="m164.62 440.93v318.14c0 12.945 10.496 23.438 23.438 23.438s23.438-10.492 23.438-23.438v-318.14c0-12.945-10.496-23.438-23.438-23.438s-23.438 10.492-23.438 23.438z"/>
  <path d="m58.594 723.63c12.941 0 23.438-10.492 23.438-23.438v-200.39c0-12.945-10.496-23.438-23.438-23.438s-23.438 10.492-23.438 23.438v200.39c0 12.945 10.496 23.438 23.438 23.438z"/>
  <path d="m988.5 440.93v318.14c0 12.945 10.496 23.438 23.438 23.438s23.438-10.492 23.438-23.438v-318.14c0-12.945-10.496-23.438-23.438-23.438s-23.438 10.492-23.438 23.438z"/>
  <path d="m1118 700.2c0 12.945 10.496 23.438 23.438 23.438s23.438-10.492 23.438-23.438v-200.39c0-12.945-10.496-23.438-23.438-23.438s-23.438 10.492-23.438 23.438z"/>
 </g>
</svg>
