<?xml version="1.0" encoding="UTF-8"?>
<svg width="1200pt" height="1200pt" version="1.1" viewBox="0 0 1200 1200" xmlns="http://www.w3.org/2000/svg">
 <g fill="#30217c">
  <path d="m71.035 844.31v284.98c0 14.543 7.7617 27.977 20.359 35.254 12.59 7.2734 28.113 7.2734 40.703 0 12.602-7.2734 20.359-20.711 20.359-35.254l0.003907-284.98c0-14.543-7.7617-27.984-20.359-35.254-12.59-7.2773-28.113-7.2773-40.703 0-12.602 7.2656-20.363 20.711-20.363 35.254z"/>
  <path d="m233.89 640.76v488.53c0 14.543 7.7617 27.977 20.352 35.254 12.602 7.2773 28.113 7.2773 40.715 0 12.602-7.2734 20.352-20.711 20.352-35.254v-488.53c0-14.551-7.7539-27.984-20.352-35.262-12.602-7.2656-28.113-7.2656-40.715 0-12.59 7.2773-20.352 20.711-20.352 35.262z"/>
  <path d="m396.73 477.91v651.38c0 14.543 7.7539 27.977 20.352 35.254 12.602 7.2773 28.113 7.2773 40.715 0 12.59-7.2734 20.352-20.711 20.352-35.254l0.003906-651.38c0-14.543-7.7617-27.984-20.352-35.254-12.602-7.2734-28.113-7.2734-40.715 0-12.602 7.2656-20.352 20.711-20.352 35.254z"/>
  <path d="m559.57 803.59v325.7c0 14.543 7.7617 27.977 20.359 35.254 12.59 7.2734 28.113 7.2734 40.703 0 12.602-7.2734 20.359-20.711 20.359-35.254l0.003907-325.7c0-14.543-7.7617-27.977-20.359-35.254-12.59-7.2734-28.113-7.2734-40.703 0-12.605 7.2773-20.363 20.711-20.363 35.254z"/>
  <path d="m722.41 559.32v569.97c0 14.543 7.7617 27.977 20.352 35.254 12.602 7.2734 28.113 7.2734 40.715 0 12.602-7.2734 20.352-20.711 20.352-35.254v-569.97c0-14.543-7.7539-27.977-20.352-35.254-12.602-7.2773-28.113-7.2773-40.715 0-12.59 7.2773-20.352 20.711-20.352 35.254z"/>
  <path d="m885.27 315.06v814.23c0 14.543 7.7539 27.977 20.352 35.254 12.602 7.2734 28.113 7.2734 40.715 0 12.59-7.2734 20.352-20.711 20.352-35.254v-814.23c0-14.543-7.7617-27.977-20.352-35.254-12.602-7.2773-28.113-7.2773-40.715 0-12.602 7.2773-20.352 20.711-20.352 35.254z"/>
  <path d="m1088.8 477.91c-10.793 0-21.152 4.2852-28.785 11.926-7.6328 7.6328-11.926 17.984-11.926 28.785v610.66c0 14.543 7.7617 27.977 20.359 35.254 12.59 7.2734 28.113 7.2734 40.703 0 12.602-7.2773 20.359-20.711 20.359-35.254v-610.66c0-10.801-4.293-21.152-11.926-28.785-7.6328-7.6406-17.992-11.926-28.785-11.926z"/>
  <path d="m71.035 600.04c13.043 0.015625 25.309-6.2188 32.977-16.773l294.95-405.57 170.05 204.12c7.0195 8.4258 17.148 13.664 28.09 14.527 10.93 0.85156 21.75-2.7344 30.004-9.9609l303.35-265.44 178.11 106.87c12.445 7.1719 27.758 7.2578 40.281 0.22266 12.531-7.0469 20.414-20.164 20.754-34.539 0.33984-14.363-6.918-27.844-19.102-35.465l-203.55-122.14h-0.007813c-7.3711-4.4727-15.965-6.4844-24.562-5.75-8.5859 0.73437-16.723 4.1758-23.23 9.8242l-294.3 257.7-176.84-212.23c-7.8047-9.9336-19.969-15.402-32.57-14.66-12.551 0.46094-24.188 6.6367-31.59 16.773l-325.68 447.81h-0.007813c-5.9141 8.1367-8.6055 18.172-7.5547 28.184 1.0469 10 5.7578 19.262 13.23 25.992 7.4648 6.7383 17.168 10.469 27.219 10.48z"/>
 </g>
</svg>
