<?xml version="1.0" encoding="UTF-8"?>
<svg width="1200pt" height="1200pt" version="1.1" viewBox="0 0 1200 1200" xmlns="http://www.w3.org/2000/svg">
 <g fill="#30217c">
  <path d="m150 1080h900c16.57 0 30-13.43 30-30v-840c0-16.57-13.43-30-30-30h-450v-30c0-16.57-13.43-30-30-30h-420c-16.57 0-30 13.43-30 30v900c0 16.57 13.43 30 30 30zm690-840h180v60h-180zm-240 0h180v60h-180zm-420-60h360v120h-360zm0 180h840v660h-840z"/>
  <path d="m930 480h-660c-16.57 0-30 13.43-30 30s13.43 30 30 30h660c16.57 0 30-13.43 30-30s-13.43-30-30-30z"/>
  <path d="m270 660h600c16.57 0 30-13.43 30-30s-13.43-30-30-30h-600c-16.57 0-30 13.43-30 30s13.43 30 30 30z"/>
  <path d="m930 720h-660c-16.57 0-30 13.43-30 30s13.43 30 30 30h660c16.57 0 30-13.43 30-30s-13.43-30-30-30z"/>
  <path d="m570 840h-300c-16.57 0-30 13.43-30 30s13.43 30 30 30h300c16.57 0 30-13.43 30-30s-13.43-30-30-30z"/>
 </g>
</svg>
