<?xml version="1.0" encoding="UTF-8"?>
<svg width="1200pt" height="1200pt" version="1.1" viewBox="0 0 1200 1200" xmlns="http://www.w3.org/2000/svg">
 <g fill="#ffffff">
  <path d="m1106.2 56.25h-1012.5c-14.914 0.015625-29.211 5.9492-39.754 16.496-10.547 10.543-16.48 24.84-16.496 39.754v975c0.015625 14.914 5.9492 29.211 16.496 39.754 10.543 10.547 24.84 16.48 39.754 16.496h1012.5c14.914-0.015625 29.211-5.9492 39.754-16.496 10.547-10.543 16.48-24.84 16.496-39.754v-975c-0.015625-14.914-5.9492-29.211-16.496-39.754-10.543-10.547-24.84-16.48-39.754-16.496zm-1012.5 37.5h1012.5c4.9727 0.003906 9.7383 1.9844 13.254 5.4961 3.5117 3.5156 5.4922 8.2812 5.4961 13.254v93.75h-1050v-93.75c0.003906-4.9727 1.9844-9.7383 5.4961-13.254 3.5156-3.5117 8.2812-5.4922 13.254-5.4961zm1012.5 1012.5h-1012.5c-4.9727-0.003906-9.7383-1.9844-13.254-5.4961-3.5117-3.5156-5.4922-8.2812-5.4961-13.254v-843.75h1050v843.75c-0.003906 4.9727-1.9844 9.7383-5.4961 13.254-3.5156 3.5117-8.2812 5.4922-13.254 5.4961z"/>
  <path d="m300 150c0 10.355-8.3945 18.75-18.75 18.75s-18.75-8.3945-18.75-18.75 8.3945-18.75 18.75-18.75 18.75 8.3945 18.75 18.75"/>
  <path d="m225 150c0 10.355-8.3945 18.75-18.75 18.75s-18.75-8.3945-18.75-18.75 8.3945-18.75 18.75-18.75 18.75 8.3945 18.75 18.75"/>
  <path d="m150 150c0 10.355-8.3945 18.75-18.75 18.75s-18.75-8.3945-18.75-18.75 8.3945-18.75 18.75-18.75 18.75 8.3945 18.75 18.75"/>
  <path d="m993.75 468.75h-263.86c5.4766-37.707-5.6992-75.934-30.629-104.75-24.934-28.816-61.156-45.375-99.258-45.375s-74.324 16.559-99.258 45.375c-24.93 28.816-36.105 67.043-30.629 104.75h-263.86c-4.9727 0-9.7422 1.9766-13.258 5.4922-3.5156 3.5156-5.4922 8.2852-5.4922 13.258v450c0 4.9727 1.9766 9.7422 5.4922 13.258 3.5156 3.5156 8.2852 5.4922 13.258 5.4922h787.5c4.9727 0 9.7422-1.9766 13.258-5.4922 3.5156-3.5156 5.4922-8.2852 5.4922-13.258v-450c0-4.9727-1.9766-9.7422-5.4922-13.258-3.5156-3.5156-8.2852-5.4922-13.258-5.4922zm-412.5-18.75c0-4.9727 1.9766-9.7422 5.4922-13.258 3.5156-3.5156 8.2852-5.4922 13.258-5.4922s9.7422 1.9766 13.258 5.4922c3.5156 3.5156 5.4922 8.2852 5.4922 13.258s-1.9766 9.7422-5.4922 13.258c-3.5156 3.5156-8.2852 5.4922-13.258 5.4922-4.9727-0.003906-9.7383-1.9844-13.254-5.4961-3.5117-3.5156-5.4922-8.2812-5.4961-13.254zm18.75 56.25c20.262 0.015625 39.977 6.5938 56.188 18.75-16.203 12.172-35.922 18.75-56.188 18.75s-39.984-6.5781-56.188-18.75c16.211-12.156 35.926-18.734 56.188-18.75zm0-150c22.047-0.007812 43.391 7.7578 60.281 21.93 16.887 14.172 28.238 33.848 32.055 55.562 3.8164 21.715-0.14844 44.078-11.191 63.16-9.875-7.7695-20.812-14.086-32.48-18.75 6.6406-11.449 9.0273-24.875 6.7422-37.91-2.2812-13.039-9.0898-24.852-19.227-33.367-10.133-8.5117-22.945-13.18-36.18-13.18s-26.047 4.668-36.18 13.18c-10.137 8.5156-16.945 20.328-19.227 33.367-2.2852 13.035 0.10156 26.461 6.7422 37.91-11.668 4.6641-22.605 10.98-32.48 18.75-11.043-19.082-15.008-41.445-11.191-63.16 3.8164-21.715 15.168-41.391 32.055-55.562 16.891-14.172 38.234-21.938 60.281-21.93zm375 562.5h-750v-412.5h256.43c5.168 10.898 11.809 21.031 19.742 30.113 0.40625 0.46875 0.82422 0.9375 1.25 1.4062h0.003906c24.883 27.68 60.355 43.488 97.574 43.488s72.691-15.809 97.574-43.488c0.42969-0.45312 0.84375-0.92188 1.25-1.4062h0.003906c7.9336-9.082 14.574-19.215 19.742-30.113h256.43z"/>
  <path d="m318.75 656.25h112.5c6.6992 0 12.887-3.5742 16.238-9.375 3.3477-5.8008 3.3477-12.949 0-18.75-3.3516-5.8008-9.5391-9.375-16.238-9.375h-112.5c-6.6992 0-12.887 3.5742-16.238 9.375-3.3477 5.8008-3.3477 12.949 0 18.75 3.3516 5.8008 9.5391 9.375 16.238 9.375z"/>
  <path d="m318.75 731.25h262.5c6.6992 0 12.887-3.5742 16.238-9.375 3.3477-5.8008 3.3477-12.949 0-18.75-3.3516-5.8008-9.5391-9.375-16.238-9.375h-262.5c-6.6992 0-12.887 3.5742-16.238 9.375-3.3477 5.8008-3.3477 12.949 0 18.75 3.3516 5.8008 9.5391 9.375 16.238 9.375z"/>
  <path d="m712.5 768.75h-393.75c-6.6992 0-12.887 3.5742-16.238 9.375-3.3477 5.8008-3.3477 12.949 0 18.75 3.3516 5.8008 9.5391 9.375 16.238 9.375h393.75c6.6992 0 12.887-3.5742 16.238-9.375 3.3477-5.8008 3.3477-12.949 0-18.75-3.3516-5.8008-9.5391-9.375-16.238-9.375z"/>
  <path d="m881.25 693.75h-225c-6.6992 0-12.887 3.5742-16.238 9.375-3.3477 5.8008-3.3477 12.949 0 18.75 3.3516 5.8008 9.5391 9.375 16.238 9.375h225c6.6992 0 12.887-3.5742 16.238-9.375 3.3477-5.8008 3.3477-12.949 0-18.75-3.3516-5.8008-9.5391-9.375-16.238-9.375z"/>
  <path d="m506.25 618.75c-6.6992 0-12.887 3.5742-16.238 9.375-3.3477 5.8008-3.3477 12.949 0 18.75 3.3516 5.8008 9.5391 9.375 16.238 9.375h375c6.6992 0 12.887-3.5742 16.238-9.375 3.3477-5.8008 3.3477-12.949 0-18.75-3.3516-5.8008-9.5391-9.375-16.238-9.375z"/>
  <path d="m693.75 1012.5c0 10.355-8.3945 18.75-18.75 18.75s-18.75-8.3945-18.75-18.75 8.3945-18.75 18.75-18.75 18.75 8.3945 18.75 18.75"/>
  <path d="m618.75 1012.5c0 10.355-8.3945 18.75-18.75 18.75s-18.75-8.3945-18.75-18.75 8.3945-18.75 18.75-18.75 18.75 8.3945 18.75 18.75"/>
  <path d="m543.75 1012.5c0 10.355-8.3945 18.75-18.75 18.75s-18.75-8.3945-18.75-18.75 8.3945-18.75 18.75-18.75 18.75 8.3945 18.75 18.75"/>
  <path d="m881.25 768.75h-93.75c-6.6992 0-12.887 3.5742-16.238 9.375-3.3477 5.8008-3.3477 12.949 0 18.75 3.3516 5.8008 9.5391 9.375 16.238 9.375h93.75c6.6992 0 12.887-3.5742 16.238-9.375 3.3477-5.8008 3.3477-12.949 0-18.75-3.3516-5.8008-9.5391-9.375-16.238-9.375z"/>
  <path d="m637.5 843.75h-75c-6.6992 0-12.887 3.5742-16.238 9.375-3.3477 5.8008-3.3477 12.949 0 18.75 3.3516 5.8008 9.5391 9.375 16.238 9.375h75c6.6992 0 12.887-3.5742 16.238-9.375 3.3477-5.8008 3.3477-12.949 0-18.75-3.3516-5.8008-9.5391-9.375-16.238-9.375z"/>
 </g>
</svg>
