<?xml version="1.0" encoding="UTF-8"?>
<svg width="24px" height="18px" viewBox="0 0 24 18" version="1.1" xmlns="http://www.w3.org/2000/svg" xmlns:xlink="http://www.w3.org/1999/xlink">
    <!-- Generator: Sketch 63.1 (92452) - https://sketch.com -->
    <title>Youtube</title>
    <desc>Created with Sketch.</desc>
    <defs>
        <polygon id="path-1" points="1 0 25 0 25 18 1 18"></polygon>
    </defs>
    <g id="Symbols" stroke="none" stroke-width="1" fill="none" fill-rule="evenodd">
        <g id="Footer" transform="translate(-1207.000000, -102.000000)">
            <g id="Group-7">
                <g>
                    <g id="Footer">
                        <g id="Link-3-Copy">
                            <g transform="translate(1125.000000, 64.000000)">
                                <g id="Group-22" transform="translate(0.000000, 36.000000)">
                                    <g id="Youtube" transform="translate(81.000000, 2.000000)">
                                        <mask id="mask-2" fill="white">
                                            <use xlink:href="#path-1"></use>
                                        </mask>
                                        <g id="Clip-8"></g>
                                        <path d="M10.5389149,12.8434286 L16.8242465,9 L10.5389149,5.20285714 L10.5389149,12.8434286 Z M24.516142,2.81142857 C24.7219022,3.65657143 24.8681849,4.93714286 24.9565975,6.65657143 L25,9 L24.9565975,11.3434286 C24.8681849,13.0937143 24.7219022,14.3897143 24.516142,15.2348571 C24.3698593,15.7662857 24.1062291,16.2342857 23.7252512,16.6405714 C23.3442733,17.0468571 22.8909578,17.328 22.3620898,17.484 C21.600134,17.7017143 19.8141996,17.8594286 17.0010717,17.952 L13,18 L9.00053583,17.952 C6.1874079,17.8594286 4.39986604,17.7017143 3.63791025,17.484 C3.1106497,17.328 2.65572672,17.0468571 2.27474883,16.6405714 C1.89537843,16.2342857 1.63014066,15.7662857 1.483858,15.2348571 C1.27970529,14.3897143 1.13181514,13.0937143 1.04501005,11.3434286 L1,9 C1,8.31257143 1.01607502,7.53085714 1.04501005,6.65657143 C1.13181514,4.93714286 1.27970529,3.65657143 1.483858,2.81142857 C1.63014066,2.24914286 1.89537843,1.76571429 2.27474883,1.35942857 C2.65572672,0.953142857 3.1106497,0.672 3.63791025,0.516 C4.39986604,0.296571429 6.1874079,0.140571429 9.00053583,0.0462857143 L13,0 L17.0010717,0.0462857143 C19.8141996,0.140571429 21.600134,0.296571429 22.3620898,0.516 C22.8909578,0.672 23.3442733,0.953142857 23.7252512,1.35942857 C24.1062291,1.76571429 24.3698593,2.24914286 24.516142,2.81142857 L24.516142,2.81142857 Z" id="Fill-7" fill="#B9C2C3" mask="url(#mask-2)"></path>
                                    </g>
                                </g>
                            </g>
                        </g>
                    </g>
                </g>
            </g>
        </g>
    </g>
</svg>