<?xml version="1.0" encoding="UTF-8"?>
<svg width="23px" height="20px" viewBox="0 0 23 20" version="1.1" xmlns="http://www.w3.org/2000/svg" xmlns:xlink="http://www.w3.org/1999/xlink">
    <!-- Generator: Sketch 63.1 (92452) - https://sketch.com -->
    <title>Chat</title>
    <desc>Created with Sketch.</desc>
    <g id="Symbols" stroke="none" stroke-width="1" fill="none" fill-rule="evenodd">
        <g id="Footer" transform="translate(-1126.000000, -148.000000)" fill="#B9C2C3">
            <g id="Group-7">
                <g>
                    <g id="Footer">
                        <g id="Link-3-Copy">
                            <g transform="translate(1125.000000, 64.000000)">
                                <g id="Group-22" transform="translate(0.000000, 36.000000)">
                                    <path d="M22.4606429,52.1458838 C23.4874286,53.4273086 24,54.8203789 24,56.3317601 C24,57.8414751 23.4874286,59.2362117 22.4606429,60.5159701 C21.4338571,61.7973948 20.0390714,62.8072041 18.2762857,63.5503971 C16.5135,64.2919238 14.5880714,64.6635203 12.5016429,64.6635203 C11.902,64.6635203 11.281,64.6285269 10.6402857,64.5585401 C8.94485714,66.0765868 6.97671429,67.1280549 4.73585714,67.7096118 C4.31692857,67.8312555 3.829,67.9262376 3.27207143,67.9962243 C3.12585714,68.0128879 2.99607143,67.9745618 2.88107143,67.8779134 C2.76607143,67.7829313 2.6905,67.6579549 2.656,67.5013178 L2.656,67.487987 C2.63135714,67.4529936 2.62807143,67.4013367 2.64942857,67.3313499 C2.67078571,67.2613631 2.679,67.218038 2.67571429,67.2013744 C2.67078571,67.1830446 2.6905,67.1430521 2.73321429,67.0780644 C2.77592857,67.0130767 2.80221429,66.9730842 2.81042857,66.9614197 C2.81864286,66.9480889 2.84821429,66.9097628 2.90078571,66.8497742 C2.95171429,66.7897855 2.98621429,66.749793 3.00264286,66.7331295 C3.06178571,66.6631427 3.19485714,66.513171 3.40021429,66.2832145 C3.60557143,66.0532579 3.75342857,65.888289 3.84378571,65.7899743 C3.93414286,65.6883268 4.06557143,65.5166925 4.24135714,65.2750715 C4.41714286,65.0317841 4.55678571,64.8101593 4.65864286,64.610197 C4.76214286,64.4119011 4.87714286,64.1552829 5.00528571,63.8436751 C5.13342857,63.5304009 5.24514286,63.2004632 5.33878571,62.853862 C3.99492857,62.0806746 2.93692857,61.1275213 2.16314286,59.9894028 C1.38771429,58.8529508 1,57.6331811 1,56.3317601 C1,55.2036398 1.30392857,54.1238437 1.91178571,53.0957045 C2.51964286,52.0675653 3.33614286,51.181066 4.36292857,50.4345403 C5.38971429,49.6880146 6.61364286,49.0947933 8.03471429,48.6565427 C9.45414286,48.2199585 10.9425714,48 12.5016429,48 C14.5880714,48 16.5135,48.3699302 18.2762857,49.1131232 C20.0390714,49.8546498 21.4338571,50.8661255 22.4606429,52.1458838" id="Chat"></path>
                                </g>
                            </g>
                        </g>
                    </g>
                </g>
            </g>
        </g>
    </g>
</svg>