<?xml version="1.0" encoding="UTF-8"?>
<svg width="21px" height="21px" viewBox="0 0 21 21" version="1.1" xmlns="http://www.w3.org/2000/svg" xmlns:xlink="http://www.w3.org/1999/xlink">
    <!-- Generator: Sketch 63.1 (92452) - https://sketch.com -->
    <title>IG</title>
    <desc>Created with Sketch.</desc>
    <g id="Symbols" stroke="none" stroke-width="1" fill="none" fill-rule="evenodd">
        <g id="Navigation" transform="translate(-1349.000000, -21.000000)" fill="#00447C" fill-rule="nonzero">
            <g id="Group-17">
                <path d="M1359.64,41.714054 C1361.49467,41.7115824 1362.79175,41.6893382 1363.53125,41.6473214 C1365.38839,41.5580357 1366.82589,41.0044643 1367.84375,39.9866071 C1368.86161,38.96875 1369.41518,37.53125 1369.50446,35.6741071 C1369.54911,34.8883929 1369.57143,33.4732143 1369.57143,31.4285714 L1369.5712,31.0742863 C1369.56873,29.2196151 1369.54648,27.9225315 1369.50446,27.1830357 C1369.41518,25.3258929 1368.86161,23.8883929 1367.84375,22.8705357 C1366.82589,21.8526786 1365.38839,21.2991071 1363.53125,21.2098214 C1362.74554,21.1651786 1361.33036,21.1428571 1359.28571,21.1428571 C1357.24107,21.1428571 1355.82589,21.1651786 1355.04018,21.2098214 C1353.18304,21.2991071 1351.74554,21.8526786 1350.72768,22.8705357 C1349.70982,23.8883929 1349.15625,25.3258929 1349.06696,27.1830357 C1349.02757,27.876313 1349.00556,29.0596577 1349.00093,30.7330697 L1349.00093,32.1240732 C1349.00556,33.7974852 1349.02757,34.9808298 1349.06696,35.6741071 C1349.15625,37.53125 1349.70982,38.96875 1350.72768,39.9866071 C1351.74554,41.0044643 1353.18304,41.5580357 1355.04018,41.6473214 C1355.82589,41.6919643 1357.24107,41.7142857 1359.28571,41.7142857 L1359.64,41.714054 Z M1358.26116,39.8727679 C1357.64062,39.8772321 1357.16964,39.8772321 1356.84821,39.8727679 C1356.52679,39.8683036 1356.09598,39.8549107 1355.5558,39.8325893 C1355.01562,39.8102679 1354.5558,39.765625 1354.17634,39.6986607 C1353.79688,39.6316964 1353.47768,39.5491071 1353.21875,39.4508929 C1352.77232,39.2723214 1352.37946,39.0133929 1352.04018,38.6741071 C1351.70089,38.3348214 1351.44196,37.9419643 1351.26339,37.4955357 C1351.16518,37.2366071 1351.08259,36.9174107 1351.01562,36.5379464 C1350.94866,36.1584821 1350.90402,35.6986607 1350.8817,35.1584821 C1350.85938,34.6183036 1350.84598,34.1875 1350.84152,33.8660714 C1350.83705,33.5446429 1350.83705,33.0736607 1350.84152,32.453125 C1350.84598,31.8325893 1350.84821,31.4910714 1350.84821,31.4285714 L1350.84815,31.4014509 C1350.84775,31.2949777 1350.84554,30.9625 1350.84152,30.4040179 C1350.83705,29.7834821 1350.83705,29.3125 1350.84152,28.9910714 C1350.84598,28.6696429 1350.85938,28.2388393 1350.8817,27.6986607 C1350.90402,27.1584821 1350.94866,26.6986607 1351.01562,26.3191964 C1351.08259,25.9397321 1351.16518,25.6205357 1351.26339,25.3616071 C1351.44196,24.9151786 1351.70089,24.5223214 1352.04018,24.1830357 C1352.37946,23.84375 1352.77232,23.5848214 1353.21875,23.40625 C1353.47768,23.3080357 1353.79688,23.2254464 1354.17634,23.1584821 C1354.5558,23.0915179 1355.01562,23.046875 1355.5558,23.0245536 C1356.09598,23.0022321 1356.52679,22.9888393 1356.84821,22.984375 C1357.16964,22.9799107 1357.64062,22.9799107 1358.26116,22.984375 C1358.8817,22.9888393 1359.22321,22.9910714 1359.28571,22.9910714 L1360.30357,22.9910714 C1360.92857,22.9821429 1361.40179,22.9799107 1361.72321,22.984375 C1362.04464,22.9888393 1362.47545,23.0022321 1363.01562,23.0245536 C1363.5558,23.046875 1364.01562,23.0915179 1364.39509,23.1584821 C1364.77455,23.2254464 1365.09375,23.3080357 1365.35268,23.40625 C1365.79911,23.5848214 1366.19196,23.84375 1366.53125,24.1830357 C1366.87054,24.5223214 1367.12946,24.9151786 1367.30804,25.3616071 C1367.40625,25.6205357 1367.48884,25.9397321 1367.5558,26.3191964 C1367.62277,26.6986607 1367.66741,27.1584821 1367.68973,27.6986607 C1367.71205,28.2388393 1367.72545,28.6696429 1367.72991,28.9910714 C1367.73438,29.3125 1367.73438,29.7834821 1367.72991,30.4040179 C1367.72679,30.8383929 1367.72475,31.1360491 1367.72382,31.2969866 L1367.72382,31.5601562 C1367.72475,31.7210938 1367.72679,32.01875 1367.72991,32.453125 C1367.73438,33.0736607 1367.73438,33.5446429 1367.72991,33.8660714 C1367.72545,34.1875 1367.71205,34.6183036 1367.68973,35.1584821 C1367.66741,35.6986607 1367.62277,36.1584821 1367.5558,36.5379464 C1367.48884,36.9174107 1367.40625,37.2366071 1367.30804,37.4955357 C1367.12946,37.9419643 1366.87054,38.3348214 1366.53125,38.6741071 C1366.19196,39.0133929 1365.79911,39.2723214 1365.35268,39.4508929 C1365.09375,39.5491071 1364.77455,39.6316964 1364.39509,39.6986607 C1364.01562,39.765625 1363.5558,39.8102679 1363.01562,39.8325893 C1362.47545,39.8549107 1362.04464,39.8683036 1361.72321,39.8727679 C1361.40179,39.8772321 1360.9308,39.8772321 1360.31027,39.8727679 C1359.87589,39.8696429 1359.57824,39.8676116 1359.4173,39.8666741 L1359.15413,39.8666741 C1358.99319,39.8676116 1358.69554,39.8696429 1358.26116,39.8727679 Z M1364.77679,27.1696429 C1365.11607,27.1696429 1365.40625,27.0491071 1365.64732,26.8080357 C1365.88839,26.5669643 1366.00893,26.2767857 1366.00893,25.9375 C1366.00893,25.5982143 1365.88839,25.3080357 1365.64732,25.0669643 C1365.40625,24.8258929 1365.11607,24.7053571 1364.77679,24.7053571 C1364.4375,24.7053571 1364.14732,24.8258929 1363.90625,25.0669643 C1363.66518,25.3080357 1363.54464,25.5982143 1363.54464,25.9375 C1363.54464,26.2767857 1363.66518,26.5669643 1363.90625,26.8080357 C1364.14732,27.0491071 1364.4375,27.1696429 1364.77679,27.1696429 Z M1359.28571,36.7053571 C1360.75,36.7053571 1361.99554,36.1919643 1363.02232,35.1651786 C1364.04911,34.1383929 1364.5625,32.8928571 1364.5625,31.4285714 C1364.5625,29.9642857 1364.04911,28.71875 1363.02232,27.6919643 C1361.99554,26.6651786 1360.75,26.1517857 1359.28571,26.1517857 C1357.82143,26.1517857 1356.57589,26.6651786 1355.54911,27.6919643 C1354.52232,28.71875 1354.00893,29.9642857 1354.00893,31.4285714 C1354.00893,32.8928571 1354.52232,34.1383929 1355.54911,35.1651786 C1356.57589,36.1919643 1357.82143,36.7053571 1359.28571,36.7053571 Z M1359.28571,34.8571429 C1358.33929,34.8571429 1357.53125,34.5223214 1356.86161,33.8526786 C1356.19196,33.1830357 1355.85714,32.375 1355.85714,31.4285714 C1355.85714,30.4821429 1356.19196,29.6741071 1356.86161,29.0044643 C1357.53125,28.3348214 1358.33929,28 1359.28571,28 C1360.23214,28 1361.04018,28.3348214 1361.70982,29.0044643 C1362.37946,29.6741071 1362.71429,30.4821429 1362.71429,31.4285714 C1362.71429,32.375 1362.37946,33.1830357 1361.70982,33.8526786 C1361.04018,34.5223214 1360.23214,34.8571429 1359.28571,34.8571429 Z" id="IG"></path>
            </g>
        </g>
    </g>
</svg>