<?xml version="1.0" standalone="no"?>
<!DOCTYPE svg PUBLIC "-//W3C//DTD SVG 20010904//EN"
 "http://www.w3.org/TR/2001/REC-SVG-20010904/DTD/svg10.dtd">
<svg version="1.0" xmlns="http://www.w3.org/2000/svg"
 width="1423.000000pt" height="298.000000pt" viewBox="0 0 1423.000000 298.000000"
 preserveAspectRatio="xMidYMid meet">

<g transform="translate(0.000000,298.000000) scale(0.100000,-0.100000)"
fill="#000000" stroke="none">
<path d="M10 1511 l0 -1471 380 0 380 0 0 404 0 404 383 5 c333 4 394 7 477
25 274 58 478 172 626 350 68 82 156 258 183 367 72 288 47 624 -62 840 -49
97 -99 165 -184 246 -153 146 -341 231 -608 275 -85 15 -211 18 -837 21 l-738
5 0 -1471z m1456 826 c74 -25 169 -91 206 -144 61 -89 73 -134 72 -278 0 -111
-4 -138 -23 -188 -45 -115 -136 -197 -264 -240 -56 -19 -91 -21 -374 -25
l-313 -4 0 452 0 451 323 -3 c270 -3 330 -7 373 -21z"/>
<path d="M7620 2330 c0 -14 7 -20 24 -20 13 0 30 -2 38 -5 20 -7 39 10 32 28
-4 12 -18 17 -50 17 -37 0 -44 -3 -44 -20z"/>
<path d="M9170 2330 c0 -17 7 -20 50 -20 43 0 50 3 50 20 0 17 -7 20 -50 20
-43 0 -50 -3 -50 -20z"/>
<path d="M13116 2329 c-496 -57 -794 -360 -762 -775 12 -164 70 -281 194 -395
108 -98 257 -163 642 -280 197 -60 258 -88 299 -135 55 -62 36 -145 -42 -186
-58 -31 -226 -37 -352 -13 -182 34 -395 118 -543 214 -34 23 -66 41 -70 41 -8
0 -33 -48 -157 -306 l-83 -171 86 -57 c416 -277 1073 -346 1477 -157 281 132
417 334 418 621 1 175 -41 293 -140 401 -131 141 -270 207 -688 330 -205 61
-308 107 -335 152 -41 67 -16 142 60 180 65 32 226 29 363 -6 109 -29 292
-100 411 -159 43 -22 79 -38 81 -36 18 20 245 475 241 484 -7 19 -240 129
-357 168 -240 79 -518 111 -743 85z"/>
<path d="M4135 2313 c-190 -40 -352 -144 -472 -300 l-58 -76 -3 182 -2 181
-370 0 -370 0 0 -1130 0 -1130 370 0 370 0 0 573 c0 541 1 578 20 652 25 98
58 155 131 227 109 107 260 158 463 158 l116 0 0 340 0 340 -62 -1 c-35 0 -94
-7 -133 -16z"/>
<path d="M5488 2315 c-542 -78 -905 -414 -993 -919 -17 -103 -20 -310 -4 -422
68 -488 411 -836 923 -935 309 -60 662 -20 919 104 299 144 494 379 583 702
27 96 28 110 28 325 0 212 -2 231 -27 323 -30 111 -95 256 -156 346 -159 234
-421 398 -741 462 -128 26 -400 33 -532 14z m383 -615 c148 -46 274 -192 315
-366 22 -96 15 -315 -14 -394 -32 -90 -58 -135 -116 -197 -90 -98 -200 -143
-347 -143 -230 0 -413 156 -464 395 -21 102 -19 255 5 349 76 296 335 445 621
356z"/>
<path d="M9613 1493 c3 -798 3 -809 25 -892 29 -108 86 -229 146 -308 186
-246 531 -347 881 -258 33 8 102 36 153 61 103 50 203 136 279 238 l43 58 0
-176 0 -176 375 0 375 0 0 1130 0 1130 -375 0 -374 0 -3 -637 c-3 -633 -4
-639 -26 -697 -62 -165 -174 -261 -333 -287 -183 -29 -346 68 -399 240 -19 60
-20 93 -20 722 l0 659 -375 0 -376 0 4 -807z"/>
<path d="M9309 2163 c-16 -37 -17 -48 -7 -55 22 -14 28 -9 49 39 16 37 17 48
7 55 -22 14 -28 9 -49 -39z"/>
<path d="M7773 2062 c-9 -6 -9 -17 1 -52 14 -46 23 -55 43 -42 10 6 10 17 0
52 -13 45 -23 55 -44 42z"/>
<path d="M9190 1835 c-16 -38 -18 -50 -8 -57 21 -13 30 -5 45 37 11 33 11 41
-1 54 -13 13 -18 9 -36 -34z"/>
<path d="M7873 1722 c-9 -6 -9 -17 1 -52 14 -46 23 -55 43 -42 10 6 10 17 0
52 -13 45 -23 55 -44 42z"/>
<path d="M9071 1528 c-17 -48 -21 -77 -10 -84 14 -8 25 3 43 48 15 35 15 38
-4 48 -17 9 -22 7 -29 -12z"/>
<path d="M7973 1382 c-9 -6 -9 -17 1 -52 14 -46 23 -55 43 -42 10 6 10 17 0
52 -13 45 -23 55 -44 42z"/>
<path d="M8939 1174 c-16 -38 -17 -49 -7 -56 25 -15 34 -6 58 56 8 21 6 27
-10 36 -18 10 -23 6 -41 -36z"/>
<path d="M8821 858 c-20 -55 -21 -65 -6 -78 12 -10 18 -5 35 36 16 37 18 49 8
56 -20 12 -28 10 -37 -14z"/>
<path d="M8700 531 c-28 -53 -30 -70 -10 -81 18 -10 23 -6 41 36 16 38 17 49
7 56 -20 12 -26 10 -38 -11z"/>
<path d="M7693 272 c-9 -6 -9 -17 1 -52 14 -46 23 -55 43 -42 10 6 10 17 0 52
-13 45 -23 55 -44 42z"/>
<path d="M8571 198 c-4 -13 -11 -35 -15 -50 -6 -27 -4 -29 25 -32 18 -2 41 86
26 96 -19 12 -27 9 -36 -14z"/>
<path d="M7900 60 c0 -17 7 -20 50 -20 43 0 50 3 50 20 0 17 -7 20 -50 20 -43
0 -50 -3 -50 -20z"/>
<path d="M8250 60 c0 -18 7 -20 55 -20 48 0 55 2 55 20 0 18 -7 20 -55 20 -48
0 -55 -2 -55 -20z"/>
</g>
</svg>
